<svg width="88" height="93" viewBox="0 0 88 93" fill="none" xmlns="http://www.w3.org/2000/svg">
<path d="M2.12308 84.3791L43.5984 40.7209L37.5499 34.2632L34.4392 37.4921C34.0395 37.9136 33.5648 38.2481 33.0421 38.4763C32.5195 38.7045 31.9592 38.822 31.3934 38.822C30.8276 38.822 30.2673 38.7045 29.7446 38.4763C29.222 38.2481 28.7472 37.9136 28.3476 37.4921L25.2801 34.2632C24.8796 33.8424 24.5619 33.3427 24.345 32.7925C24.1282 32.2424 24.0167 31.6526 24.0167 31.057C24.0167 30.4614 24.1282 29.8716 24.345 29.3215C24.5619 28.7713 24.8796 28.2716 25.2801 27.8509L49.7333 2.11072C50.1329 1.68913 50.6077 1.35465 51.1303 1.12644C51.653 0.89823 52.2133 0.780762 52.7791 0.780762C53.3449 0.780762 53.9052 0.89823 54.4278 1.12644C54.9505 1.35465 55.4252 1.68913 55.8249 2.11072L58.8924 5.33961C60.5773 7.11322 60.5773 9.97829 58.8924 11.7519L55.8249 14.8898L61.9598 21.3931C62.3595 20.9715 62.8343 20.637 63.3569 20.4088C63.8796 20.1806 64.4398 20.0631 65.0057 20.0631C65.5715 20.0631 66.1318 20.1806 66.6544 20.4088C67.1771 20.637 67.6518 20.9715 68.0515 21.3931C69.7364 23.1667 69.7364 26.0773 68.0515 27.8509L74.1432 34.2632L77.2106 31.0343C78.8956 29.2607 81.6606 29.2607 83.3455 31.0343L86.3698 34.2632C88.0547 36.0368 88.0547 38.9473 86.3698 40.7209L61.9598 66.4156C60.2749 68.1892 57.5099 68.1892 55.8249 66.4156L52.8007 63.2322C52.3905 62.8126 52.0644 62.3106 51.8417 61.756C51.619 61.2014 51.5043 60.6054 51.5043 60.0033C51.5043 59.4012 51.619 58.8052 51.8417 58.2506C52.0644 57.696 52.3905 57.194 52.8007 56.7744L55.8249 53.5455L49.7333 47.1332L8.21476 90.8369C7.81507 91.2585 7.34031 91.593 6.81767 91.8212C6.29502 92.0494 5.73475 92.1669 5.16892 92.1669C4.60309 92.1669 4.04282 92.0494 3.52017 91.8212C2.99752 91.593 2.52277 91.2585 2.12308 90.8369C0.438142 89.0633 0.438142 86.1528 2.12308 84.3791ZM78.5931 78.5581C80.8848 78.5581 83.0826 79.5163 84.703 81.222C86.3235 82.9278 87.2338 85.2412 87.2338 87.6535V92.2012H44.0304V87.6535C44.0304 85.2412 44.9408 82.9278 46.5612 81.222C48.1816 79.5163 50.3794 78.5581 52.6711 78.5581H78.5931Z" fill="url(#paint0_linear_210_2718)"/>
<defs>
<linearGradient id="paint0_linear_210_2718" x1="44.2464" y1="0.780762" x2="44.2464" y2="92.2012" gradientUnits="userSpaceOnUse">
<stop stop-color="white"/>
<stop offset="0.0001" stop-color="#E96BF5"/>
<stop offset="0.604167" stop-color="#0D11B4"/>
<stop offset="0.942708" stop-color="#0D11B4"/>
</linearGradient>
</defs>
</svg>
