<svg width="72" height="90" viewBox="0 0 72 90" fill="none" xmlns="http://www.w3.org/2000/svg">
<path d="M36.2118 36.122C53.8325 36.122 71.6659 30.0328 71.6659 18.395C71.6659 6.7572 53.8325 0.667969 36.2118 0.667969C18.5912 0.667969 0.757812 6.7572 0.757812 18.395C0.757812 30.0328 18.5912 36.122 36.2118 36.122Z" fill="url(#paint0_linear_210_2655)"/>
<path d="M0.757812 36.1223C0.757812 47.7601 18.5912 53.8493 36.2118 53.8493C53.8325 53.8493 71.6659 47.7601 71.6659 36.1223V27.2588C71.6659 38.8966 53.8325 44.9858 36.2118 44.9858C18.5912 44.9858 0.757812 38.8966 0.757812 27.2588V36.1223Z" fill="url(#paint1_linear_210_2655)"/>
<path d="M0.757812 53.8489C0.757812 65.4866 18.5912 71.5759 36.2118 71.5759C53.8325 71.5759 71.6659 65.4866 71.6659 53.8489V44.9854C71.6659 56.6231 53.8325 62.7124 36.2118 62.7124C18.5912 62.7124 0.757812 56.6231 0.757812 44.9854V53.8489Z" fill="url(#paint2_linear_210_2655)"/>
<path d="M0.757812 71.5764C0.757812 83.2142 18.5912 89.3034 36.2118 89.3034C53.8325 89.3034 71.6659 83.2142 71.6659 71.5764V62.7129C71.6659 74.3507 53.8325 80.4399 36.2118 80.4399C18.5912 80.4399 0.757812 74.3507 0.757812 62.7129V71.5764Z" fill="url(#paint3_linear_210_2655)"/>
<defs>
<linearGradient id="paint0_linear_210_2655" x1="36.2118" y1="0.667969" x2="36.2118" y2="36.122" gradientUnits="userSpaceOnUse">
<stop stop-color="#FEF5FF"/>
<stop offset="0.401042" stop-color="#E96BF5"/>
<stop offset="0.994692" stop-color="#0D11B4"/>
</linearGradient>
<linearGradient id="paint1_linear_210_2655" x1="36.2118" y1="27.2588" x2="36.2118" y2="53.8493" gradientUnits="userSpaceOnUse">
<stop stop-color="#FEF5FF"/>
<stop offset="0.401042" stop-color="#E96BF5"/>
<stop offset="0.994692" stop-color="#0D11B4"/>
</linearGradient>
<linearGradient id="paint2_linear_210_2655" x1="36.2118" y1="44.9854" x2="36.2118" y2="71.5759" gradientUnits="userSpaceOnUse">
<stop stop-color="#FEF5FF"/>
<stop offset="0.401042" stop-color="#E96BF5"/>
<stop offset="0.994692" stop-color="#0D11B4"/>
</linearGradient>
<linearGradient id="paint3_linear_210_2655" x1="36.2118" y1="62.7129" x2="36.2118" y2="89.3034" gradientUnits="userSpaceOnUse">
<stop stop-color="#FEF5FF"/>
<stop offset="0.401042" stop-color="#E96BF5"/>
<stop offset="0.994692" stop-color="#0D11B4"/>
</linearGradient>
</defs>
</svg>
