<svg width="577" height="287" viewBox="0 0 577 287" fill="none" xmlns="http://www.w3.org/2000/svg">
<g filter="url(#filter0_i_271_418)">
<path d="M208.116 63.1484L203.673 63.7103C199.298 64.2636 194.86 63.4223 190.992 61.3062C184.514 58.4194 177.774 56.161 170.865 54.5622L167.185 53.7108L154.741 52.6257L146.409 52.947C142.591 53.0943 138.788 53.5185 135.03 54.2162C129.073 55.3223 123.263 57.11 117.715 59.5441L116.035 60.281C111.191 62.4061 106.567 65.0005 102.228 68.027C98.2887 70.7748 94.6015 73.8674 91.21 77.2683L90.4204 78.06C86.4179 82.0735 82.7882 86.4422 79.5762 91.1124L78.6876 92.4044C75.2937 97.339 72.4185 102.611 70.1078 108.136C67.7422 113.793 65.9813 119.683 64.8544 125.71L64.7922 126.042C63.8016 131.34 63.3032 136.718 63.3032 142.107C63.3032 147.185 63.7458 152.254 64.626 157.256L65.2802 160.973C66.1245 165.771 67.4169 170.478 69.1404 175.035C71.3726 180.936 74.3132 186.543 77.8977 191.735L78.4124 192.481C80.9602 196.171 83.7948 199.655 86.89 202.899L88.3478 204.427C92.2029 208.469 96.4285 212.14 100.969 215.392L101.746 215.949C106.761 219.54 112.169 222.547 117.866 224.911C122.6 226.875 127.51 228.386 132.529 229.422L134.503 229.829C140.405 231.048 146.416 231.662 152.442 231.662C158.647 231.662 164.834 231.011 170.903 229.72L174.352 228.986C177.864 228.239 181.305 227.192 184.637 225.855L190.994 223.306C194.209 222.016 197.641 221.354 201.105 221.354H203.004C224.899 221.354 237.162 246.59 223.631 263.804C221.725 266.228 219.406 268.298 216.782 269.917L216.126 270.322C214.523 271.311 212.831 272.15 211.073 272.828L206.682 274.522C202 276.327 197.184 277.764 192.278 278.818L192.074 278.862L177.465 281.575L176.253 281.735C150.14 285.18 123.58 281.464 99.4154 270.983L97.0574 269.96C39.4751 244.985 5.1445 185.144 12.6488 122.829L12.829 121.333C15.7643 96.9585 25.2238 73.828 40.2095 54.3817C60.9834 27.4243 91.0843 9.20662 124.602 3.30574L132.762 1.86911C139.827 0.625404 146.986 0 154.159 0C166.027 0 177.834 1.71212 189.213 5.08345L195.861 7.05293L214.534 14.7126C217.916 16.1 220.957 18.205 223.446 20.8821C237.463 35.9554 228.536 60.5658 208.116 63.1484Z" fill="url(#paint0_linear_271_418)"/>
</g>
<g filter="url(#filter1_i_271_418)">
<path d="M446.427 175.872L406.248 95.627C403.546 90.2307 396.806 87.657 391.195 89.8784C385.584 92.0999 383.226 98.2753 385.928 103.672L426.107 183.916C428.809 189.313 435.548 191.886 441.16 189.665C446.771 187.444 449.129 181.268 446.427 175.872Z" fill="url(#paint1_linear_271_418)"/>
<path d="M369.989 159.152L422.173 159.152C427.635 159.152 432.063 154.725 432.063 149.263C432.063 143.801 427.635 139.374 422.173 139.374L369.989 139.374C364.527 139.374 360.1 143.801 360.1 149.263C360.1 154.725 364.527 159.152 369.989 159.152Z" fill="url(#paint2_linear_271_418)"/>
<path d="M364.377 183.916L404.557 103.672C407.259 98.2753 404.9 92.0999 399.289 89.8784C393.678 87.657 386.939 90.2307 384.237 95.627L344.057 175.872C341.355 181.268 343.713 187.444 349.324 189.665C354.936 191.886 361.675 189.313 364.377 183.916Z" fill="url(#paint3_linear_271_418)"/>
<path d="M246.267 185.261V101.631C246.267 95.4892 241.287 90.5099 235.145 90.5099C229.003 90.5099 224.023 95.4892 224.023 101.632V185.261C224.023 191.403 229.003 196.382 235.145 196.382C241.287 196.382 246.267 191.403 246.267 185.261Z" fill="url(#paint4_linear_271_418)"/>
<path d="M263.495 110.288H233.913C228.451 110.288 224.023 105.861 224.023 100.399C224.023 94.9375 228.451 90.5099 233.913 90.5099H266.888C279.443 90.5099 290.853 97.8077 296.117 109.205L296.315 109.635C300.247 118.147 300.142 127.975 296.03 136.401C290.799 147.119 279.917 153.917 267.992 153.917H265.239H234.203C228.581 153.917 224.023 149.359 224.023 143.737C224.023 138.115 228.581 133.557 234.203 133.557H263.812C264.759 133.557 265.704 133.441 266.623 133.211C278.017 130.361 278.15 114.235 266.918 110.802C265.812 110.464 264.651 110.288 263.495 110.288Z" fill="url(#paint5_linear_271_418)"/>
<path d="M545.892 180.059V134.28C545.892 128.137 540.912 123.158 534.77 123.158C528.628 123.158 523.648 128.137 523.648 134.28V180.059C523.648 186.202 528.628 191.181 534.77 191.181C540.912 191.181 545.892 186.202 545.892 180.059Z" fill="url(#paint6_linear_271_418)"/>
<path d="M545.142 141.004L571.179 100.083C574.392 95.0344 572.662 88.7612 567.316 86.0718C561.97 83.3824 555.032 85.2951 551.82 90.3441L525.783 131.264C522.571 136.313 524.3 142.587 529.646 145.276C534.992 147.965 541.93 146.053 545.142 141.004Z" fill="url(#paint7_linear_271_418)"/>
<path d="M544.768 131.337L518.731 90.4165C515.518 85.3675 508.58 83.4548 503.234 86.1442C497.888 88.8336 496.159 95.1068 499.372 100.156L525.408 141.076C528.621 146.125 535.559 148.038 540.905 145.348C546.251 142.659 547.98 136.386 544.768 131.337Z" fill="url(#paint8_linear_271_418)"/>
</g>
<g filter="url(#filter2_i_271_418)">
<path d="M182.5 132H138.5C133.253 132 129 136.253 129 141.5C129 146.747 133.253 151 138.5 151H182.5C187.747 151 192 146.747 192 141.5C192 136.253 187.747 132 182.5 132Z" fill="url(#paint9_linear_271_418)"/>
</g>
<defs>
<filter id="filter0_i_271_418" x="7.625" y="0" width="222.613" height="289.983" filterUnits="userSpaceOnUse" color-interpolation-filters="sRGB">
<feFlood flood-opacity="0" result="BackgroundImageFix"/>
<feBlend mode="normal" in="SourceGraphic" in2="BackgroundImageFix" result="shape"/>
<feColorMatrix in="SourceAlpha" type="matrix" values="0 0 0 0 0 0 0 0 0 0 0 0 0 0 0 0 0 0 127 0" result="hardAlpha"/>
<feOffset dx="-4" dy="7"/>
<feGaussianBlur stdDeviation="5"/>
<feComposite in2="hardAlpha" operator="arithmetic" k2="-1" k3="1"/>
<feColorMatrix type="matrix" values="0 0 0 0 0 0 0 0 0 0 0 0 0 0 0 0 0 0 0.52 0"/>
<feBlend mode="normal" in2="shape" result="effect1_innerShadow_271_418"/>
</filter>
<filter id="filter1_i_271_418" x="224.023" y="84.8537" width="350.77" height="114.528" filterUnits="userSpaceOnUse" color-interpolation-filters="sRGB">
<feFlood flood-opacity="0" result="BackgroundImageFix"/>
<feBlend mode="normal" in="SourceGraphic" in2="BackgroundImageFix" result="shape"/>
<feColorMatrix in="SourceAlpha" type="matrix" values="0 0 0 0 0 0 0 0 0 0 0 0 0 0 0 0 0 0 127 0" result="hardAlpha"/>
<feOffset dx="2" dy="3"/>
<feGaussianBlur stdDeviation="1.5"/>
<feComposite in2="hardAlpha" operator="arithmetic" k2="-1" k3="1"/>
<feColorMatrix type="matrix" values="0 0 0 0 0 0 0 0 0 0 0 0 0 0 0 0 0 0 0.39 0"/>
<feBlend mode="normal" in2="shape" result="effect1_innerShadow_271_418"/>
</filter>
<filter id="filter2_i_271_418" x="129" y="132" width="65" height="21" filterUnits="userSpaceOnUse" color-interpolation-filters="sRGB">
<feFlood flood-opacity="0" result="BackgroundImageFix"/>
<feBlend mode="normal" in="SourceGraphic" in2="BackgroundImageFix" result="shape"/>
<feColorMatrix in="SourceAlpha" type="matrix" values="0 0 0 0 0 0 0 0 0 0 0 0 0 0 0 0 0 0 127 0" result="hardAlpha"/>
<feOffset dx="2" dy="2"/>
<feGaussianBlur stdDeviation="1.5"/>
<feComposite in2="hardAlpha" operator="arithmetic" k2="-1" k3="1"/>
<feColorMatrix type="matrix" values="0 0 0 0 0 0 0 0 0 0 0 0 0 0 0 0 0 0 0.37 0"/>
<feBlend mode="normal" in2="shape" result="effect1_innerShadow_271_418"/>
</filter>
<linearGradient id="paint0_linear_271_418" x1="41.6611" y1="46.1153" x2="328.522" y2="285.686" gradientUnits="userSpaceOnUse">
<stop stop-color="#E96BF5"/>
<stop offset="0.421875" stop-color="#E96BF5"/>
<stop offset="1" stop-color="#0D11B4"/>
</linearGradient>
<linearGradient id="paint1_linear_271_418" x1="457.496" y1="222.268" x2="403.78" y2="86.5838" gradientUnits="userSpaceOnUse">
<stop stop-color="#0D11B4"/>
<stop offset="1" stop-color="#E96BF5"/>
</linearGradient>
<linearGradient id="paint2_linear_271_418" x1="336.585" y1="149.273" x2="431.047" y2="149.273" gradientUnits="userSpaceOnUse">
<stop stop-color="#0D11B4"/>
<stop offset="1" stop-color="#E96BF5"/>
</linearGradient>
<linearGradient id="paint3_linear_271_418" x1="333.008" y1="222.276" x2="386.724" y2="86.5917" gradientUnits="userSpaceOnUse">
<stop stop-color="#0D11B4"/>
<stop offset="1" stop-color="#E96BF5"/>
</linearGradient>
<linearGradient id="paint4_linear_271_418" x1="235.156" y1="230.977" x2="235.156" y2="92.0043" gradientUnits="userSpaceOnUse">
<stop stop-color="#0D11B4"/>
<stop offset="1" stop-color="#E96BF5"/>
</linearGradient>
<linearGradient id="paint5_linear_271_418" x1="265.606" y1="174.636" x2="265.606" y2="91.4049" gradientUnits="userSpaceOnUse">
<stop stop-color="#0D11B4"/>
<stop offset="1" stop-color="#E96BF5"/>
</linearGradient>
<linearGradient id="paint6_linear_271_418" x1="534.781" y1="213.409" x2="534.781" y2="124.118" gradientUnits="userSpaceOnUse">
<stop stop-color="#0D11B4"/>
<stop offset="1" stop-color="#E96BF5"/>
</linearGradient>
<linearGradient id="paint7_linear_271_418" x1="517.346" y1="164.627" x2="558.533" y2="82.7563" gradientUnits="userSpaceOnUse">
<stop stop-color="#0D11B4"/>
<stop offset="1" stop-color="#E96BF5"/>
</linearGradient>
<linearGradient id="paint8_linear_271_418" x1="553.224" y1="164.69" x2="512.036" y2="82.8192" gradientUnits="userSpaceOnUse">
<stop stop-color="#0D11B4"/>
<stop offset="1" stop-color="#E96BF5"/>
</linearGradient>
<linearGradient id="paint9_linear_271_418" x1="129" y1="141.5" x2="192" y2="141.5" gradientUnits="userSpaceOnUse">
<stop stop-color="white"/>
<stop offset="0.21875" stop-color="#E96BF5"/>
<stop offset="0.833333" stop-color="#0D11B4"/>
</linearGradient>
</defs>
</svg>
