<svg width="1682" height="975" viewBox="0 0 1682 975" fill="none" xmlns="http://www.w3.org/2000/svg">
<path d="M0 127.678C0 57.1634 46.7323 0 104.379 0H1577.62C1635.27 0 1682 57.1633 1682 127.678V846.322C1682 916.837 1635.27 974 1577.62 974H104.379C46.7322 974 0 916.837 0 846.322V127.678Z" fill="url(#paint0_linear_407_20)"/>
<g filter="url(#filter0_i_407_20)">
<path d="M1485.58 875.933V98.4878C1485.58 44.2471 1529.55 0.276367 1583.79 0.276367C1638.03 0.276367 1682 44.247 1682 98.4877V875.933C1682 930.174 1638.03 974.145 1583.79 974.145C1529.55 974.145 1485.58 930.174 1485.58 875.933Z" fill="url(#paint1_linear_407_20)"/>
<path d="M1334.72 182.208H1591.03C1641.27 182.208 1682 141.481 1682 91.242C1682 41.0031 1641.27 0.276367 1591.03 0.276367H1314.33C1296.01 0.276367 1286.85 0.276367 1278.43 0.80975C1185.15 6.71457 1101.75 60.9638 1058.54 143.84C1054.64 151.326 1050.92 159.7 1043.5 176.449L1041.76 180.364C1038.16 188.477 1036.36 192.533 1034.77 196.473C1007.91 262.641 1008.68 336.809 1036.91 402.405C1038.59 406.309 1040.47 410.327 1044.23 418.361L1044.23 418.365L1044.23 418.368C1049.4 429.392 1051.98 434.904 1054.58 439.895C1098.71 524.588 1184.71 579.265 1280.12 583.29C1285.74 583.527 1291.83 583.527 1304.01 583.527H1318.04H1588.36C1640.08 583.527 1682 541.602 1682 489.886C1682 438.169 1640.08 396.245 1588.36 396.245H1331.69C1322.63 396.245 1313.6 395.088 1304.83 392.803C1201.47 365.879 1200.25 219.711 1302.02 187.308C1312.56 183.953 1323.67 182.208 1334.72 182.208Z" fill="url(#paint2_linear_407_20)"/>
</g>
<g filter="url(#filter1_i_407_20)">
<path d="M235.221 95.2251L231.312 95.7189C227.482 96.2027 223.598 95.467 220.211 93.6163C214.539 91.0915 208.639 89.1165 202.591 87.7184L199.368 86.9735L188.474 86.0246L181.179 86.3056C177.836 86.4344 174.507 86.8053 171.218 87.4155C166.002 88.3829 160.915 89.9466 156.057 92.0757L154.585 92.7206C150.346 94.5785 146.298 96.8469 142.5 99.4933C139.051 101.897 135.822 104.602 132.851 107.578L132.163 108.268C128.658 111.778 125.479 115.6 122.666 119.686L121.888 120.816C118.918 125.13 116.402 129.74 114.379 134.571C112.308 139.519 110.766 144.671 109.779 149.944L109.725 150.232C108.857 154.865 108.421 159.568 108.421 164.282C108.421 168.723 108.809 173.156 109.579 177.53L110.152 180.78C110.891 184.976 112.023 189.095 113.532 193.08C115.486 198.24 118.06 203.143 121.197 207.682L121.65 208.338C123.88 211.564 126.361 214.61 129.069 217.447L130.345 218.783C133.722 222.319 137.422 225.53 141.398 228.375L142.075 228.859C146.467 232.001 151.203 234.632 156.191 236.699C160.335 238.417 164.633 239.738 169.026 240.644L170.755 241C175.922 242.066 181.185 242.603 186.461 242.603C191.893 242.603 197.31 242.034 202.623 240.905L205.643 240.263C208.717 239.61 211.73 238.694 214.648 237.525L220.219 235.293C223.029 234.167 226.03 233.588 229.058 233.588H230.755C249.906 233.588 260.627 255.666 248.784 270.716C247.116 272.834 245.089 274.643 242.793 276.058L242.215 276.414C240.812 277.279 239.331 278.013 237.793 278.606L233.947 280.087C229.848 281.666 225.632 282.922 221.337 283.844L221.158 283.883L208.368 286.255L207.263 286.401C184.429 289.41 161.206 286.164 140.073 277.008L137.893 276.063C87.533 254.244 57.5044 201.917 64.0732 147.428L64.2273 146.149C66.7999 124.809 75.0885 104.56 88.2174 87.5414C106.396 63.9768 132.723 48.0552 162.035 42.9003L169.231 41.6347C175.416 40.547 181.684 40 187.964 40C198.355 40 208.691 41.4975 218.655 44.4462L224.474 46.1682L240.828 52.8698C243.785 54.0814 246.443 55.9201 248.62 58.259C260.888 71.4373 253.083 92.9684 235.221 95.2251Z" fill="url(#paint3_linear_407_20)"/>
</g>
<g filter="url(#filter2_i_407_20)">
<path d="M252.182 191.023C247.068 191.023 242.636 189.898 238.886 187.648C235.136 185.398 232.227 182.25 230.159 178.205C228.114 174.159 227.091 169.432 227.091 164.023C227.091 158.614 228.114 153.875 230.159 149.807C232.227 145.739 235.136 142.58 238.886 140.33C242.636 138.08 247.068 136.955 252.182 136.955C257.295 136.955 261.727 138.08 265.477 140.33C269.227 142.58 272.125 145.739 274.17 149.807C276.239 153.875 277.273 158.614 277.273 164.023C277.273 169.432 276.239 174.159 274.17 178.205C272.125 182.25 269.227 185.398 265.477 187.648C261.727 189.898 257.295 191.023 252.182 191.023ZM252.25 181.136C255.023 181.136 257.341 180.375 259.205 178.852C261.068 177.307 262.455 175.239 263.364 172.648C264.295 170.057 264.761 167.17 264.761 163.989C264.761 160.784 264.295 157.886 263.364 155.295C262.455 152.682 261.068 150.602 259.205 149.057C257.341 147.511 255.023 146.739 252.25 146.739C249.409 146.739 247.045 147.511 245.159 149.057C243.295 150.602 241.898 152.682 240.966 155.295C240.057 157.886 239.602 160.784 239.602 163.989C239.602 167.17 240.057 170.057 240.966 172.648C241.898 175.239 243.295 177.307 245.159 178.852C247.045 180.375 249.409 181.136 252.25 181.136ZM287.747 190V137.636H299.543V146.534H300.156C301.247 143.534 303.054 141.193 305.577 139.511C308.099 137.807 311.111 136.955 314.611 136.955C318.156 136.955 321.145 137.818 323.577 139.545C326.031 141.25 327.759 143.58 328.759 146.534H329.304C330.463 143.625 332.418 141.307 335.168 139.58C337.94 137.83 341.224 136.955 345.02 136.955C349.838 136.955 353.77 138.477 356.815 141.523C359.861 144.568 361.384 149.011 361.384 154.852V190H349.009V156.761C349.009 153.511 348.145 151.136 346.418 149.636C344.69 148.114 342.577 147.352 340.077 147.352C337.099 147.352 334.77 148.284 333.088 150.148C331.429 151.989 330.599 154.386 330.599 157.341V190H318.497V156.25C318.497 153.545 317.679 151.386 316.043 149.773C314.429 148.159 312.315 147.352 309.702 147.352C307.929 147.352 306.315 147.807 304.861 148.716C303.406 149.602 302.247 150.864 301.384 152.5C300.52 154.114 300.088 156 300.088 158.159V190H287.747ZM373.903 190V137.636H386.244V190H373.903ZM380.108 130.205C378.153 130.205 376.472 129.557 375.062 128.261C373.653 126.943 372.949 125.364 372.949 123.523C372.949 121.659 373.653 120.08 375.062 118.784C376.472 117.466 378.153 116.807 380.108 116.807C382.085 116.807 383.767 117.466 385.153 118.784C386.563 120.08 387.267 121.659 387.267 123.523C387.267 125.364 386.563 126.943 385.153 128.261C383.767 129.557 382.085 130.205 380.108 130.205ZM411.276 159.318V190H398.935V137.636H410.73V146.534H411.344C412.548 143.602 414.469 141.273 417.105 139.545C419.764 137.818 423.048 136.955 426.957 136.955C430.571 136.955 433.719 137.727 436.401 139.273C439.105 140.818 441.196 143.057 442.673 145.989C444.173 148.92 444.912 152.477 444.889 156.659V190H432.548V158.568C432.548 155.068 431.639 152.33 429.821 150.352C428.026 148.375 425.537 147.386 422.355 147.386C420.196 147.386 418.276 147.864 416.594 148.818C414.935 149.75 413.628 151.102 412.673 152.875C411.741 154.648 411.276 156.795 411.276 159.318ZM480.207 210.727C475.776 210.727 471.969 210.125 468.787 208.92C465.605 207.739 463.048 206.148 461.116 204.148C459.185 202.148 457.844 199.932 457.094 197.5L468.207 194.807C468.707 195.83 469.435 196.841 470.389 197.841C471.344 198.864 472.628 199.705 474.241 200.364C475.878 201.045 477.935 201.386 480.412 201.386C483.912 201.386 486.81 200.534 489.105 198.83C491.401 197.148 492.548 194.375 492.548 190.511V180.591H491.935C491.298 181.864 490.366 183.17 489.139 184.511C487.935 185.852 486.332 186.977 484.332 187.886C482.355 188.795 479.866 189.25 476.866 189.25C472.844 189.25 469.196 188.307 465.923 186.42C462.673 184.511 460.082 181.67 458.151 177.898C456.241 174.102 455.287 169.352 455.287 163.648C455.287 157.898 456.241 153.045 458.151 149.091C460.082 145.114 462.685 142.102 465.957 140.057C469.23 137.989 472.878 136.955 476.901 136.955C479.969 136.955 482.491 137.477 484.469 138.523C486.469 139.545 488.06 140.784 489.241 142.239C490.423 143.67 491.321 145.023 491.935 146.295H492.616V137.636H504.787V190.852C504.787 195.33 503.719 199.034 501.582 201.966C499.446 204.898 496.526 207.091 492.821 208.545C489.116 210 484.912 210.727 480.207 210.727ZM480.31 179.568C482.923 179.568 485.151 178.932 486.991 177.659C488.832 176.386 490.23 174.557 491.185 172.17C492.139 169.784 492.616 166.92 492.616 163.58C492.616 160.284 492.139 157.398 491.185 154.92C490.253 152.443 488.866 150.523 487.026 149.159C485.207 147.773 482.969 147.08 480.31 147.08C477.56 147.08 475.264 147.795 473.423 149.227C471.582 150.659 470.196 152.625 469.264 155.125C468.332 157.602 467.866 160.42 467.866 163.58C467.866 166.784 468.332 169.591 469.264 172C470.219 174.386 471.616 176.25 473.457 177.591C475.321 178.909 477.605 179.568 480.31 179.568ZM579.736 139.375C579.418 136.398 578.077 134.08 575.713 132.42C573.372 130.761 570.327 129.932 566.577 129.932C563.94 129.932 561.679 130.33 559.793 131.125C557.906 131.92 556.463 133 555.463 134.364C554.463 135.727 553.952 137.284 553.929 139.034C553.929 140.489 554.259 141.75 554.918 142.818C555.599 143.886 556.52 144.795 557.679 145.545C558.838 146.273 560.122 146.886 561.531 147.386C562.94 147.886 564.361 148.307 565.793 148.648L572.338 150.284C574.974 150.898 577.509 151.727 579.94 152.773C582.395 153.818 584.588 155.136 586.52 156.727C588.474 158.318 590.02 160.239 591.156 162.489C592.293 164.739 592.861 167.375 592.861 170.398C592.861 174.489 591.815 178.091 589.724 181.205C587.634 184.295 584.611 186.716 580.656 188.466C576.724 190.193 571.963 191.057 566.372 191.057C560.94 191.057 556.224 190.216 552.224 188.534C548.247 186.852 545.134 184.398 542.884 181.17C540.656 177.943 539.452 174.011 539.27 169.375H551.713C551.895 171.807 552.645 173.83 553.963 175.443C555.281 177.057 556.997 178.261 559.111 179.057C561.247 179.852 563.634 180.25 566.27 180.25C569.02 180.25 571.429 179.841 573.497 179.023C575.588 178.182 577.224 177.023 578.406 175.545C579.588 174.045 580.19 172.295 580.213 170.295C580.19 168.477 579.656 166.977 578.611 165.795C577.565 164.591 576.099 163.591 574.213 162.795C572.349 161.977 570.168 161.25 567.668 160.614L559.724 158.568C553.974 157.091 549.429 154.852 546.088 151.852C542.77 148.83 541.111 144.818 541.111 139.818C541.111 135.705 542.224 132.102 544.452 129.011C546.702 125.92 549.759 123.523 553.622 121.818C557.486 120.091 561.861 119.227 566.747 119.227C571.702 119.227 576.043 120.091 579.77 121.818C583.52 123.523 586.463 125.898 588.599 128.943C590.736 131.966 591.838 135.443 591.906 139.375H579.736ZM626.432 191.023C621.318 191.023 616.886 189.898 613.136 187.648C609.386 185.398 606.477 182.25 604.409 178.205C602.364 174.159 601.341 169.432 601.341 164.023C601.341 158.614 602.364 153.875 604.409 149.807C606.477 145.739 609.386 142.58 613.136 140.33C616.886 138.08 621.318 136.955 626.432 136.955C631.545 136.955 635.977 138.08 639.727 140.33C643.477 142.58 646.375 145.739 648.42 149.807C650.489 153.875 651.523 158.614 651.523 164.023C651.523 169.432 650.489 174.159 648.42 178.205C646.375 182.25 643.477 185.398 639.727 187.648C635.977 189.898 631.545 191.023 626.432 191.023ZM626.5 181.136C629.273 181.136 631.591 180.375 633.455 178.852C635.318 177.307 636.705 175.239 637.614 172.648C638.545 170.057 639.011 167.17 639.011 163.989C639.011 160.784 638.545 157.886 637.614 155.295C636.705 152.682 635.318 150.602 633.455 149.057C631.591 147.511 629.273 146.739 626.5 146.739C623.659 146.739 621.295 147.511 619.409 149.057C617.545 150.602 616.148 152.682 615.216 155.295C614.307 157.886 613.852 160.784 613.852 163.989C613.852 167.17 614.307 170.057 615.216 172.648C616.148 175.239 617.545 177.307 619.409 178.852C621.295 180.375 623.659 181.136 626.5 181.136ZM684.838 191.023C679.724 191.023 675.293 189.898 671.543 187.648C667.793 185.398 664.884 182.25 662.815 178.205C660.77 174.159 659.747 169.432 659.747 164.023C659.747 158.614 660.77 153.875 662.815 149.807C664.884 145.739 667.793 142.58 671.543 140.33C675.293 138.08 679.724 136.955 684.838 136.955C689.952 136.955 694.384 138.08 698.134 140.33C701.884 142.58 704.781 145.739 706.827 149.807C708.895 153.875 709.929 158.614 709.929 164.023C709.929 169.432 708.895 174.159 706.827 178.205C704.781 182.25 701.884 185.398 698.134 187.648C694.384 189.898 689.952 191.023 684.838 191.023ZM684.906 181.136C687.679 181.136 689.997 180.375 691.861 178.852C693.724 177.307 695.111 175.239 696.02 172.648C696.952 170.057 697.418 167.17 697.418 163.989C697.418 160.784 696.952 157.886 696.02 155.295C695.111 152.682 693.724 150.602 691.861 149.057C689.997 147.511 687.679 146.739 684.906 146.739C682.065 146.739 679.702 147.511 677.815 149.057C675.952 150.602 674.554 152.682 673.622 155.295C672.713 157.886 672.259 160.784 672.259 163.989C672.259 167.17 672.713 170.057 673.622 172.648C674.554 175.239 675.952 177.307 677.815 178.852C679.702 180.375 682.065 181.136 684.906 181.136ZM732.744 159.318V190H720.403V137.636H732.199V146.534H732.812C734.017 143.602 735.938 141.273 738.574 139.545C741.233 137.818 744.517 136.955 748.426 136.955C752.04 136.955 755.188 137.727 757.869 139.273C760.574 140.818 762.665 143.057 764.142 145.989C765.642 148.92 766.381 152.477 766.358 156.659V190H754.017V158.568C754.017 155.068 753.108 152.33 751.29 150.352C749.494 148.375 747.006 147.386 743.824 147.386C741.665 147.386 739.744 147.864 738.062 148.818C736.403 149.75 735.097 151.102 734.142 152.875C733.21 154.648 732.744 156.795 732.744 159.318ZM810.318 190.75C808.25 190.75 806.477 190.023 805 188.568C803.523 187.114 802.795 185.341 802.818 183.25C802.795 181.205 803.523 179.455 805 178C806.477 176.545 808.25 175.818 810.318 175.818C812.318 175.818 814.057 176.545 815.534 178C817.034 179.455 817.795 181.205 817.818 183.25C817.795 184.636 817.432 185.898 816.727 187.034C816.045 188.17 815.136 189.08 814 189.761C812.886 190.42 811.659 190.75 810.318 190.75ZM838.162 190.75C836.094 190.75 834.321 190.023 832.844 188.568C831.366 187.114 830.639 185.341 830.662 183.25C830.639 181.205 831.366 179.455 832.844 178C834.321 176.545 836.094 175.818 838.162 175.818C840.162 175.818 841.901 176.545 843.378 178C844.878 179.455 845.639 181.205 845.662 183.25C845.639 184.636 845.276 185.898 844.571 187.034C843.889 188.17 842.98 189.08 841.844 189.761C840.73 190.42 839.503 190.75 838.162 190.75ZM866.006 190.75C863.938 190.75 862.165 190.023 860.688 188.568C859.21 187.114 858.483 185.341 858.506 183.25C858.483 181.205 859.21 179.455 860.688 178C862.165 176.545 863.938 175.818 866.006 175.818C868.006 175.818 869.744 176.545 871.222 178C872.722 179.455 873.483 181.205 873.506 183.25C873.483 184.636 873.119 185.898 872.415 187.034C871.733 188.17 870.824 189.08 869.688 189.761C868.574 190.42 867.347 190.75 866.006 190.75Z" fill="url(#paint4_linear_407_20)"/>
</g>
<g filter="url(#filter3_i_407_20)">
<path d="M92.9538 741V675.545H119.992C124.893 675.545 129.122 676.504 132.68 678.422C136.26 680.318 139.019 682.971 140.958 686.38C142.897 689.768 143.866 693.71 143.866 698.205C143.866 702.722 142.876 706.675 140.894 710.062C138.934 713.429 136.132 716.039 132.489 717.893C128.845 719.746 124.52 720.673 119.513 720.673H102.83V708.209H116.572C118.959 708.209 120.951 707.793 122.549 706.962C124.168 706.131 125.393 704.97 126.224 703.479C127.055 701.966 127.471 700.208 127.471 698.205C127.471 696.181 127.055 694.434 126.224 692.964C125.393 691.472 124.168 690.322 122.549 689.512C120.93 688.702 118.938 688.298 116.572 688.298H108.774V741H92.9538ZM151.665 741V691.909H166.846V700.858H167.357C168.252 697.619 169.712 695.212 171.736 693.635C173.76 692.037 176.114 691.238 178.799 691.238C179.523 691.238 180.269 691.291 181.036 691.398C181.803 691.483 182.517 691.621 183.178 691.813V705.396C182.432 705.141 181.452 704.938 180.237 704.789C179.044 704.64 177.979 704.565 177.041 704.565C175.188 704.565 173.515 704.981 172.023 705.812C170.553 706.621 169.392 707.761 168.54 709.232C167.709 710.68 167.293 712.385 167.293 714.345V741H151.665ZM209.944 741.927C204.809 741.927 200.377 740.915 196.649 738.891C192.941 736.845 190.086 733.937 188.083 730.165C186.102 726.373 185.111 721.866 185.111 716.646C185.111 711.575 186.113 707.143 188.115 703.351C190.118 699.537 192.941 696.575 196.585 694.466C200.228 692.335 204.522 691.27 209.465 691.27C212.959 691.27 216.155 691.813 219.053 692.9C221.951 693.987 224.454 695.595 226.564 697.726C228.673 699.857 230.314 702.488 231.485 705.62C232.657 708.731 233.243 712.3 233.243 716.327V720.226H190.576V711.149H218.701C218.68 709.487 218.286 708.006 217.519 706.707C216.752 705.407 215.697 704.395 214.355 703.67C213.034 702.925 211.51 702.552 209.784 702.552C208.037 702.552 206.471 702.946 205.086 703.734C203.701 704.501 202.604 705.556 201.794 706.898C200.985 708.219 200.559 709.722 200.516 711.405V720.641C200.516 722.644 200.91 724.402 201.699 725.915C202.487 727.406 203.605 728.567 205.054 729.398C206.503 730.229 208.229 730.645 210.232 730.645C211.617 730.645 212.874 730.453 214.003 730.07C215.132 729.686 216.102 729.121 216.912 728.376C217.721 727.63 218.328 726.714 218.733 725.627L233.083 726.043C232.487 729.26 231.176 732.062 229.152 734.448C227.15 736.813 224.518 738.656 221.258 739.977C217.998 741.277 214.227 741.927 209.944 741.927ZM291.978 702.264V714.281H261.68V702.264H291.978ZM322.348 741V675.545H349.642C354.543 675.545 358.645 676.238 361.947 677.623C365.271 679.008 367.764 680.947 369.426 683.44C371.109 685.933 371.951 688.82 371.951 692.101C371.951 694.594 371.429 696.82 370.385 698.781C369.341 700.719 367.902 702.328 366.07 703.607C364.238 704.885 362.118 705.78 359.71 706.291V706.93C362.352 707.058 364.792 707.772 367.029 709.072C369.287 710.371 371.098 712.183 372.462 714.505C373.826 716.806 374.507 719.533 374.507 722.687C374.507 726.202 373.613 729.345 371.823 732.115C370.033 734.864 367.444 737.037 364.056 738.635C360.669 740.212 356.556 741 351.72 741H322.348ZM338.169 728.248H347.949C351.379 728.248 353.904 727.598 355.523 726.298C357.164 724.999 357.984 723.188 357.984 720.865C357.984 719.182 357.59 717.733 356.801 716.518C356.013 715.283 354.895 714.335 353.446 713.674C351.997 712.992 350.26 712.651 348.236 712.651H338.169V728.248ZM338.169 702.456H346.926C348.652 702.456 350.186 702.168 351.528 701.593C352.87 701.018 353.914 700.187 354.66 699.1C355.427 698.013 355.811 696.703 355.811 695.169C355.811 692.974 355.033 691.249 353.478 689.991C351.922 688.734 349.824 688.106 347.181 688.106H338.169V702.456ZM405.029 741.927C399.873 741.927 395.441 740.872 391.734 738.763C388.048 736.632 385.203 733.67 383.201 729.878C381.219 726.064 380.228 721.643 380.228 716.614C380.228 711.565 381.219 707.143 383.201 703.351C385.203 699.537 388.048 696.575 391.734 694.466C395.441 692.335 399.873 691.27 405.029 691.27C410.186 691.27 414.607 692.335 418.293 694.466C422 696.575 424.845 699.537 426.826 703.351C428.829 707.143 429.831 711.565 429.831 716.614C429.831 721.643 428.829 726.064 426.826 729.878C424.845 733.67 422 736.632 418.293 738.763C414.607 740.872 410.186 741.927 405.029 741.927ZM405.125 730.134C407 730.134 408.588 729.558 409.887 728.408C411.187 727.257 412.178 725.659 412.86 723.614C413.563 721.568 413.914 719.203 413.914 716.518C413.914 713.791 413.563 711.405 412.86 709.359C412.178 707.314 411.187 705.716 409.887 704.565C408.588 703.415 407 702.839 405.125 702.839C403.186 702.839 401.546 703.415 400.203 704.565C398.882 705.716 397.87 707.314 397.167 709.359C396.485 711.405 396.145 713.791 396.145 716.518C396.145 719.203 396.485 721.568 397.167 723.614C397.87 725.659 398.882 727.257 400.203 728.408C401.546 729.558 403.186 730.134 405.125 730.134ZM460.752 741.927C455.596 741.927 451.164 740.872 447.457 738.763C443.771 736.632 440.926 733.67 438.923 729.878C436.942 726.064 435.951 721.643 435.951 716.614C435.951 711.565 436.942 707.143 438.923 703.351C440.926 699.537 443.771 696.575 447.457 694.466C451.164 692.335 455.596 691.27 460.752 691.27C465.908 691.27 470.33 692.335 474.016 694.466C477.723 696.575 480.567 699.537 482.549 703.351C484.552 707.143 485.553 711.565 485.553 716.614C485.553 721.643 484.552 726.064 482.549 729.878C480.567 733.67 477.723 736.632 474.016 738.763C470.33 740.872 465.908 741.927 460.752 741.927ZM460.848 730.134C462.723 730.134 464.31 729.558 465.61 728.408C466.91 727.257 467.901 725.659 468.582 723.614C469.286 721.568 469.637 719.203 469.637 716.518C469.637 713.791 469.286 711.405 468.582 709.359C467.901 707.314 466.91 705.716 465.61 704.565C464.31 703.415 462.723 702.839 460.848 702.839C458.909 702.839 457.268 703.415 455.926 704.565C454.605 705.716 453.593 707.314 452.89 709.359C452.208 711.405 451.867 713.791 451.867 716.518C451.867 719.203 452.208 721.568 452.89 723.614C453.593 725.659 454.605 727.257 455.926 728.408C457.268 729.558 458.909 730.134 460.848 730.134ZM507.654 728.12L507.718 709.487H509.891L523.698 691.909H541.404L520.885 717.094H516.762L507.654 728.12ZM493.559 741V675.545H509.188V741H493.559ZM524.049 741L511.201 720.609L521.493 709.519L542.107 741H524.049ZM575.889 759.409C574.014 759.409 572.245 759.26 570.583 758.962C568.922 758.685 567.494 758.312 566.301 757.843L569.752 746.497C571.287 747.009 572.672 747.307 573.907 747.392C575.164 747.477 576.24 747.275 577.135 746.785C578.051 746.316 578.755 745.474 579.245 744.26L579.852 742.79L562.402 691.909H578.765L587.81 726.938H588.321L597.494 691.909H613.953L595.449 745.698C594.554 748.383 593.286 750.748 591.645 752.793C590.026 754.86 587.927 756.479 585.349 757.651C582.792 758.823 579.639 759.409 575.889 759.409ZM641.279 741.927C636.123 741.927 631.691 740.872 627.984 738.763C624.298 736.632 621.453 733.67 619.451 729.878C617.469 726.064 616.478 721.643 616.478 716.614C616.478 711.565 617.469 707.143 619.451 703.351C621.453 699.537 624.298 696.575 627.984 694.466C631.691 692.335 636.123 691.27 641.279 691.27C646.436 691.27 650.857 692.335 654.543 694.466C658.25 696.575 661.095 699.537 663.076 703.351C665.079 707.143 666.081 711.565 666.081 716.614C666.081 721.643 665.079 726.064 663.076 729.878C661.095 733.67 658.25 736.632 654.543 738.763C650.857 740.872 646.436 741.927 641.279 741.927ZM641.375 730.134C643.25 730.134 644.838 729.558 646.137 728.408C647.437 727.257 648.428 725.659 649.11 723.614C649.813 721.568 650.164 719.203 650.164 716.518C650.164 713.791 649.813 711.405 649.11 709.359C648.428 707.314 647.437 705.716 646.137 704.565C644.838 703.415 643.25 702.839 641.375 702.839C639.436 702.839 637.796 703.415 636.453 704.565C635.132 705.716 634.12 707.314 633.417 709.359C632.735 711.405 632.395 713.791 632.395 716.518C632.395 719.203 632.735 721.568 633.417 723.614C634.12 725.659 635.132 727.257 636.453 728.408C637.796 729.558 639.436 730.134 641.375 730.134ZM705.759 719.81V691.909H721.356V741H706.462V731.859H705.951C704.864 734.864 703.011 737.25 700.39 739.018C697.79 740.766 694.648 741.639 690.962 741.639C687.616 741.639 684.676 740.872 682.141 739.338C679.605 737.804 677.634 735.663 676.228 732.914C674.822 730.144 674.108 726.906 674.087 723.198V691.909H689.715V720.13C689.737 722.793 690.44 724.892 691.825 726.426C693.21 727.96 695.095 728.727 697.482 728.727C699.037 728.727 700.433 728.386 701.668 727.705C702.925 727.001 703.916 725.989 704.641 724.668C705.386 723.326 705.759 721.707 705.759 719.81ZM731.303 741V691.909H746.485V700.858H746.996C747.891 697.619 749.35 695.212 751.374 693.635C753.399 692.037 755.753 691.238 758.438 691.238C759.162 691.238 759.908 691.291 760.675 691.398C761.442 691.483 762.156 691.621 762.816 691.813V705.396C762.07 705.141 761.09 704.938 759.876 704.789C758.683 704.64 757.617 704.565 756.68 704.565C754.826 704.565 753.154 704.981 751.662 705.812C750.192 706.621 749.031 707.761 748.178 709.232C747.347 710.68 746.932 712.385 746.932 714.345V741H731.303ZM137.538 869.4C130.635 869.4 124.477 868.462 119.065 866.587C113.653 864.734 109.072 862.006 105.322 858.406C101.572 854.826 98.7173 850.469 96.7571 845.334C94.7969 840.199 93.8061 834.35 93.7848 827.788C93.8061 821.289 94.7969 815.376 96.7571 810.05C98.7386 804.702 101.626 800.099 105.418 796.243C109.232 792.365 113.898 789.371 119.417 787.262C124.957 785.153 131.274 784.098 138.369 784.098C144.847 784.098 150.663 785.014 155.82 786.847C160.976 788.679 165.365 791.321 168.987 794.773C172.631 798.224 175.411 802.39 177.329 807.269C179.246 812.148 180.195 817.656 180.173 823.793C180.195 827.99 179.79 831.751 178.959 835.075C178.128 838.398 176.86 841.243 175.156 843.608C173.472 845.973 171.342 847.837 168.763 849.201C166.207 850.543 163.192 851.342 159.719 851.598C156.906 851.832 154.776 851.662 153.327 851.087C151.878 850.511 150.855 849.68 150.259 848.594C149.662 847.486 149.246 846.25 149.012 844.886H148.629C148.138 846.186 147.063 847.347 145.401 848.37C143.76 849.371 141.8 850.128 139.52 850.639C137.24 851.172 134.896 851.364 132.489 851.214C130.06 851.044 127.695 850.469 125.393 849.489C123.092 848.487 121.015 847.028 119.161 845.11C117.329 843.171 115.869 840.732 114.783 837.791C113.717 834.851 113.174 831.388 113.153 827.404C113.174 823.42 113.728 820 114.815 817.145C115.923 814.268 117.361 811.882 119.129 809.986C120.919 808.068 122.879 806.587 125.01 805.543C127.141 804.478 129.229 803.786 131.274 803.466C133.746 803.04 136.132 803.008 138.433 803.37C140.734 803.732 142.673 804.318 144.25 805.128C145.848 805.937 146.839 806.811 147.222 807.749H147.702V804.169H158.76V836.129C158.803 837.514 159.08 838.516 159.591 839.134C160.102 839.751 160.763 840.06 161.572 840.06C162.808 840.06 163.895 839.453 164.832 838.239C165.791 837.003 166.526 835.117 167.038 832.582C167.57 830.025 167.826 826.776 167.805 822.834C167.826 818.445 167.251 814.695 166.079 811.584C164.928 808.452 163.362 805.863 161.381 803.817C159.399 801.772 157.141 800.174 154.605 799.023C152.091 797.852 149.428 797.031 146.615 796.562C143.803 796.094 141.033 795.859 138.305 795.859C132.872 795.859 128.174 796.68 124.211 798.32C120.248 799.94 116.967 802.187 114.367 805.064C111.768 807.94 109.829 811.275 108.55 815.067C107.293 818.839 106.654 822.887 106.633 827.212C106.654 832.134 107.357 836.491 108.742 840.284C110.127 844.055 112.162 847.219 114.847 849.776C117.531 852.333 120.844 854.261 124.786 855.561C128.749 856.882 133.288 857.543 138.401 857.543C140.894 857.543 143.323 857.383 145.688 857.063C148.053 856.744 150.205 856.339 152.144 855.849C154.104 855.359 155.713 854.847 156.97 854.315L160.614 864.702C159.271 865.533 157.418 866.3 155.053 867.003C152.709 867.727 150.024 868.303 146.999 868.729C143.994 869.176 140.841 869.4 137.538 869.4ZM136.771 839.357C139.307 839.357 141.31 838.888 142.78 837.951C144.25 836.992 145.294 835.586 145.912 833.732C146.53 831.879 146.807 829.609 146.743 826.925C146.743 824.709 146.466 822.749 145.912 821.044C145.358 819.339 144.357 817.997 142.908 817.017C141.459 816.037 139.371 815.547 136.643 815.547C134.3 815.547 132.308 816.005 130.667 816.921C129.048 817.837 127.801 819.148 126.928 820.852C126.075 822.557 125.649 824.613 125.649 827.021C125.649 829.13 126.001 831.133 126.704 833.029C127.407 834.904 128.568 836.428 130.188 837.599C131.807 838.771 134.001 839.357 136.771 839.357ZM211.494 850.927C206.317 850.927 201.874 849.862 198.167 847.731C194.481 845.6 191.647 842.638 189.665 838.846C187.684 835.032 186.693 830.621 186.693 825.614C186.693 820.586 187.684 816.175 189.665 812.383C191.668 808.569 194.513 805.597 198.199 803.466C201.906 801.335 206.327 800.27 211.462 800.27C216.001 800.27 219.953 801.09 223.32 802.731C226.707 804.371 229.349 806.694 231.246 809.698C233.163 812.681 234.175 816.186 234.282 820.213H219.676C219.378 817.699 218.526 815.728 217.119 814.3C215.734 812.873 213.923 812.159 211.686 812.159C209.875 812.159 208.288 812.67 206.924 813.693C205.56 814.695 204.495 816.186 203.728 818.168C202.982 820.128 202.609 822.557 202.609 825.455C202.609 828.352 202.982 830.803 203.728 832.805C204.495 834.787 205.56 836.289 206.924 837.312C208.288 838.313 209.875 838.814 211.686 838.814C213.135 838.814 214.413 838.505 215.521 837.887C216.651 837.269 217.577 836.364 218.302 835.17C219.026 833.956 219.484 832.486 219.676 830.76H234.282C234.133 834.808 233.121 838.345 231.246 841.371C229.392 844.396 226.782 846.751 223.415 848.434C220.07 850.096 216.097 850.927 211.494 850.927ZM242.28 850V800.909H257.461V809.858H257.972C258.867 806.619 260.327 804.212 262.351 802.635C264.375 801.037 266.73 800.238 269.414 800.238C270.139 800.238 270.884 800.291 271.651 800.398C272.419 800.483 273.132 800.621 273.793 800.813V814.396C273.047 814.141 272.067 813.938 270.852 813.789C269.659 813.64 268.594 813.565 267.656 813.565C265.803 813.565 264.13 813.981 262.639 814.812C261.169 815.621 260.007 816.761 259.155 818.232C258.324 819.68 257.909 821.385 257.909 823.345V850H242.28ZM291.211 868.409C289.336 868.409 287.568 868.26 285.906 867.962C284.244 867.685 282.816 867.312 281.623 866.843L285.075 855.497C286.609 856.009 287.994 856.307 289.23 856.392C290.487 856.477 291.563 856.275 292.458 855.785C293.374 855.316 294.077 854.474 294.567 853.26L295.174 851.79L277.724 800.909H294.088L303.132 835.938H303.644L312.816 800.909H329.276L310.771 854.698C309.876 857.383 308.608 859.748 306.968 861.793C305.348 863.86 303.249 865.479 300.671 866.651C298.115 867.823 294.961 868.409 291.211 868.409ZM335.268 868.409V800.909H350.737V809.315H351.216C351.856 807.823 352.761 806.385 353.933 805C355.126 803.615 356.639 802.486 358.471 801.612C360.325 800.717 362.541 800.27 365.119 800.27C368.528 800.27 371.714 801.165 374.675 802.955C377.658 804.744 380.066 807.504 381.898 811.232C383.731 814.961 384.647 819.712 384.647 825.487C384.647 831.048 383.763 835.703 381.994 839.453C380.247 843.203 377.882 846.016 374.899 847.891C371.937 849.766 368.645 850.703 365.023 850.703C362.552 850.703 360.41 850.298 358.599 849.489C356.788 848.679 355.265 847.614 354.029 846.293C352.814 844.972 351.877 843.555 351.216 842.042H350.897V868.409H335.268ZM350.577 825.455C350.577 828.097 350.929 830.398 351.632 832.358C352.356 834.318 353.39 835.842 354.732 836.928C356.096 837.994 357.726 838.526 359.622 838.526C361.54 838.526 363.17 837.994 364.512 836.928C365.854 835.842 366.866 834.318 367.548 832.358C368.251 830.398 368.603 828.097 368.603 825.455C368.603 822.812 368.251 820.522 367.548 818.583C366.866 816.644 365.854 815.142 364.512 814.077C363.191 813.011 361.561 812.479 359.622 812.479C357.704 812.479 356.074 813.001 354.732 814.045C353.39 815.089 352.356 816.58 351.632 818.519C350.929 820.458 350.577 822.77 350.577 825.455ZM420.546 800.909V812.415H389.577V800.909H420.546ZM396.065 789.148H411.693V834.563C411.693 835.522 411.842 836.3 412.141 836.896C412.46 837.472 412.918 837.887 413.515 838.143C414.112 838.377 414.825 838.494 415.656 838.494C416.253 838.494 416.881 838.441 417.542 838.335C418.224 838.207 418.735 838.1 419.076 838.015L421.441 849.297C420.695 849.51 419.641 849.776 418.277 850.096C416.935 850.415 415.326 850.618 413.451 850.703C409.786 850.874 406.643 850.447 404.023 849.425C401.423 848.381 399.431 846.761 398.046 844.567C396.683 842.372 396.022 839.613 396.065 836.289V789.148ZM450.908 850.927C445.752 850.927 441.32 849.872 437.613 847.763C433.927 845.632 431.082 842.67 429.08 838.878C427.098 835.064 426.107 830.643 426.107 825.614C426.107 820.565 427.098 816.143 429.08 812.351C431.082 808.537 433.927 805.575 437.613 803.466C441.32 801.335 445.752 800.27 450.908 800.27C456.065 800.27 460.486 801.335 464.172 803.466C467.879 805.575 470.724 808.537 472.705 812.351C474.708 816.143 475.71 820.565 475.71 825.614C475.71 830.643 474.708 835.064 472.705 838.878C470.724 842.67 467.879 845.632 464.172 847.763C460.486 849.872 456.065 850.927 450.908 850.927ZM451.004 839.134C452.879 839.134 454.467 838.558 455.766 837.408C457.066 836.257 458.057 834.659 458.739 832.614C459.442 830.568 459.793 828.203 459.793 825.518C459.793 822.791 459.442 820.405 458.739 818.359C458.057 816.314 457.066 814.716 455.766 813.565C454.467 812.415 452.879 811.839 451.004 811.839C449.065 811.839 447.425 812.415 446.082 813.565C444.761 814.716 443.749 816.314 443.046 818.359C442.364 820.405 442.023 822.791 442.023 825.518C442.023 828.203 442.364 830.568 443.046 832.614C443.749 834.659 444.761 836.257 446.082 837.408C447.425 838.558 449.065 839.134 451.004 839.134ZM558.758 784.545V850H545.335L519.287 812.223H518.872V850H503.051V784.545H516.667L542.426 822.259H542.97V784.545H558.758ZM591.621 850.927C586.465 850.927 582.033 849.872 578.326 847.763C574.64 845.632 571.795 842.67 569.792 838.878C567.811 835.064 566.82 830.643 566.82 825.614C566.82 820.565 567.811 816.143 569.792 812.351C571.795 808.537 574.64 805.575 578.326 803.466C582.033 801.335 586.465 800.27 591.621 800.27C596.778 800.27 601.199 801.335 604.885 803.466C608.592 805.575 611.437 808.537 613.418 812.351C615.421 816.143 616.422 820.565 616.422 825.614C616.422 830.643 615.421 835.064 613.418 838.878C611.437 842.67 608.592 845.632 604.885 847.763C601.199 849.872 596.778 850.927 591.621 850.927ZM591.717 839.134C593.592 839.134 595.18 838.558 596.479 837.408C597.779 836.257 598.77 834.659 599.452 832.614C600.155 830.568 600.506 828.203 600.506 825.518C600.506 822.791 600.155 820.405 599.452 818.359C598.77 816.314 597.779 814.716 596.479 813.565C595.18 812.415 593.592 811.839 591.717 811.839C589.778 811.839 588.138 812.415 586.795 813.565C585.474 814.716 584.462 816.314 583.759 818.359C583.077 820.405 582.736 822.791 582.736 825.518C582.736 828.203 583.077 830.568 583.759 832.614C584.462 834.659 585.474 836.257 586.795 837.408C588.138 838.558 589.778 839.134 591.717 839.134ZM632.546 850L619.762 800.909H635.455L642.07 832.358H642.486L649.581 800.909H664.89L672.177 832.134H672.593L679.017 800.909H694.709L681.893 850H665.178L657.507 821.396H656.964L649.294 850H632.546ZM759.021 850V861.442H715.331V850H759.021Z" fill="url(#paint5_linear_407_20)"/>
</g>
<defs>
<filter id="filter0_i_407_20" x="1015.17" y="0.276367" width="693.832" height="1001.87" filterUnits="userSpaceOnUse" color-interpolation-filters="sRGB">
<feFlood flood-opacity="0" result="BackgroundImageFix"/>
<feBlend mode="normal" in="SourceGraphic" in2="BackgroundImageFix" result="shape"/>
<feColorMatrix in="SourceAlpha" type="matrix" values="0 0 0 0 0 0 0 0 0 0 0 0 0 0 0 0 0 0 127 0" result="hardAlpha"/>
<feOffset dx="27" dy="28"/>
<feGaussianBlur stdDeviation="14"/>
<feComposite in2="hardAlpha" operator="arithmetic" k2="-1" k3="1"/>
<feColorMatrix type="matrix" values="0 0 0 0 0 0 0 0 0 0 0 0 0 0 0 0 0 0 0.35 0"/>
<feBlend mode="normal" in2="shape" result="effect1_innerShadow_407_20"/>
</filter>
<filter id="filter1_i_407_20" x="42.1758" y="40" width="212.391" height="264.491" filterUnits="userSpaceOnUse" color-interpolation-filters="sRGB">
<feFlood flood-opacity="0" result="BackgroundImageFix"/>
<feBlend mode="normal" in="SourceGraphic" in2="BackgroundImageFix" result="shape"/>
<feColorMatrix in="SourceAlpha" type="matrix" values="0 0 0 0 0 0 0 0 0 0 0 0 0 0 0 0 0 0 127 0" result="hardAlpha"/>
<feOffset dx="-21" dy="17"/>
<feGaussianBlur stdDeviation="12"/>
<feComposite in2="hardAlpha" operator="arithmetic" k2="-1" k3="1"/>
<feColorMatrix type="matrix" values="0 0 0 0 0 0 0 0 0 0 0 0 0 0 0 0 0 0 0.52 0"/>
<feBlend mode="normal" in2="shape" result="effect1_innerShadow_407_20"/>
</filter>
<filter id="filter2_i_407_20" x="227.09" y="116.807" width="646.414" height="97.9209" filterUnits="userSpaceOnUse" color-interpolation-filters="sRGB">
<feFlood flood-opacity="0" result="BackgroundImageFix"/>
<feBlend mode="normal" in="SourceGraphic" in2="BackgroundImageFix" result="shape"/>
<feColorMatrix in="SourceAlpha" type="matrix" values="0 0 0 0 0 0 0 0 0 0 0 0 0 0 0 0 0 0 127 0" result="hardAlpha"/>
<feOffset dy="4"/>
<feGaussianBlur stdDeviation="2.5"/>
<feComposite in2="hardAlpha" operator="arithmetic" k2="-1" k3="1"/>
<feColorMatrix type="matrix" values="0 0 0 0 0 0 0 0 0 0 0 0 0 0 0 0 0 0 0.49 0"/>
<feBlend mode="normal" in2="shape" result="effect1_innerShadow_407_20"/>
</filter>
<filter id="filter3_i_407_20" x="92.9531" y="675.546" width="669.863" height="197.854" filterUnits="userSpaceOnUse" color-interpolation-filters="sRGB">
<feFlood flood-opacity="0" result="BackgroundImageFix"/>
<feBlend mode="normal" in="SourceGraphic" in2="BackgroundImageFix" result="shape"/>
<feColorMatrix in="SourceAlpha" type="matrix" values="0 0 0 0 0 0 0 0 0 0 0 0 0 0 0 0 0 0 127 0" result="hardAlpha"/>
<feOffset dy="4"/>
<feGaussianBlur stdDeviation="2.5"/>
<feComposite in2="hardAlpha" operator="arithmetic" k2="-1" k3="1"/>
<feColorMatrix type="matrix" values="0 0 0 0 0 0 0 0 0 0 0 0 0 0 0 0 0 0 0.48 0"/>
<feBlend mode="normal" in2="shape" result="effect1_innerShadow_407_20"/>
</filter>
<linearGradient id="paint0_linear_407_20" x1="20.1303" y1="918.781" x2="1695.13" y2="299.12" gradientUnits="userSpaceOnUse">
<stop offset="0.00043516" stop-color="#731EFF"/>
<stop offset="0.369792" stop-color="#ED3CB7"/>
<stop offset="0.644947" stop-color="#FF9671"/>
<stop offset="0.837282" stop-color="#FFC75F"/>
<stop offset="1" stop-color="#F9F871"/>
</linearGradient>
<linearGradient id="paint1_linear_407_20" x1="1583.69" y1="1292.37" x2="1583.69" y2="14.022" gradientUnits="userSpaceOnUse">
<stop stop-color="#0D11B4"/>
<stop offset="1" stop-color="#E96BF5"/>
</linearGradient>
<linearGradient id="paint2_linear_407_20" x1="1314.79" y1="774.112" x2="1314.79" y2="8.50863" gradientUnits="userSpaceOnUse">
<stop stop-color="#0D11B4"/>
<stop offset="1" stop-color="#E96BF5"/>
</linearGradient>
<linearGradient id="paint3_linear_407_20" x1="89.4737" y1="80.3308" x2="340.399" y2="290.111" gradientUnits="userSpaceOnUse">
<stop stop-color="#E96BF5"/>
<stop offset="0.421875" stop-color="#E96BF5"/>
<stop offset="1" stop-color="#0D11B4"/>
</linearGradient>
<linearGradient id="paint4_linear_407_20" x1="246.458" y1="156" x2="631.705" y2="205.935" gradientUnits="userSpaceOnUse">
<stop stop-color="#F9B6FF"/>
<stop offset="1" stop-color="#0D11B4"/>
</linearGradient>
<linearGradient id="paint5_linear_407_20" x1="112.771" y1="713" x2="793.481" y2="935.356" gradientUnits="userSpaceOnUse">
<stop offset="0.363347" stop-color="white"/>
<stop offset="1" stop-color="#0D11B4"/>
</linearGradient>
</defs>
</svg>
