<svg width="1234" height="199" viewBox="0 0 1234 199" fill="none" xmlns="http://www.w3.org/2000/svg">
<path d="M0.706121 64V1.18H25.7261C31.3661 1.18 35.6861 2.8 38.6861 6.04C41.7461 9.22 43.2761 13.6 43.2761 19.18C43.2761 24.76 41.7461 29.17 38.6861 32.41C35.6861 35.59 31.3661 37.18 25.7261 37.18H8.26612V64H0.706121ZM8.26612 30.52H25.7261C28.7261 30.52 31.0361 29.74 32.6561 28.18C34.3361 26.62 35.1761 24.4 35.1761 21.52V16.84C35.1761 13.96 34.3361 11.74 32.6561 10.18C31.0361 8.62 28.7261 7.84 25.7261 7.84H8.26612V30.52ZM122.696 64H115.136V1.18H140.156C145.676 1.18 149.966 2.71 153.026 5.77C156.146 8.83 157.706 13.24 157.706 19C157.706 23.62 156.626 27.43 154.466 30.43C152.366 33.37 149.246 35.32 145.106 36.28L159.506 64H150.956L137.366 37H122.696V64ZM140.156 30.52C143.156 30.52 145.466 29.74 147.086 28.18C148.766 26.62 149.606 24.4 149.606 21.52V16.84C149.606 13.96 148.766 11.74 147.086 10.18C145.466 8.62 143.156 7.84 140.156 7.84H122.696V30.52H140.156ZM232.555 64V1.18H270.895V7.84H240.115V28.9H269.095V35.56H240.115V57.34H270.895V64H232.555ZM366.235 40.51V32.77H389.725V40.51H366.235ZM430.112 1.18H455.942C461.162 1.18 465.242 2.65 468.182 5.59C471.182 8.53 472.682 12.46 472.682 17.38C472.682 19.72 472.352 21.7 471.692 23.32C471.032 24.94 470.192 26.29 469.172 27.37C468.152 28.39 467.042 29.17 465.842 29.71C464.642 30.19 463.532 30.52 462.512 30.7V31.24C463.652 31.3 464.912 31.6 466.292 32.14C467.732 32.68 469.082 33.55 470.342 34.75C471.602 35.89 472.652 37.39 473.492 39.25C474.392 41.05 474.842 43.24 474.842 45.82C474.842 48.4 474.422 50.8 473.582 53.02C472.802 55.24 471.692 57.16 470.252 58.78C468.812 60.4 467.102 61.69 465.122 62.65C463.142 63.55 460.982 64 458.642 64H430.112V1.18ZM437.672 57.34H456.302C459.542 57.34 462.092 56.53 463.952 54.91C465.812 53.23 466.742 50.8 466.742 47.62V44.56C466.742 41.38 465.812 38.98 463.952 37.36C462.092 35.68 459.542 34.84 456.302 34.84H437.672V57.34ZM437.672 28.36H455.042C458.042 28.36 460.382 27.61 462.062 26.11C463.742 24.61 464.582 22.45 464.582 19.63V16.57C464.582 13.75 463.742 11.59 462.062 10.09C460.382 8.59 458.042 7.84 455.042 7.84H437.672V28.36ZM563.7 65.08C559.62 65.08 555.93 64.39 552.63 63.01C549.39 61.57 546.6 59.5 544.26 56.8C541.98 54.04 540.21 50.65 538.95 46.63C537.69 42.55 537.06 37.87 537.06 32.59C537.06 27.31 537.69 22.66 538.95 18.64C540.21 14.62 541.98 11.23 544.26 8.47C546.6 5.71 549.39 3.64 552.63 2.26C555.93 0.819996 559.62 0.0999966 563.7 0.0999966C567.72 0.0999966 571.38 0.819996 574.68 2.26C577.98 3.64 580.77 5.71 583.05 8.47C585.39 11.23 587.19 14.62 588.45 18.64C589.71 22.66 590.34 27.31 590.34 32.59C590.34 37.87 589.71 42.55 588.45 46.63C587.19 50.65 585.39 54.04 583.05 56.8C580.77 59.5 577.98 61.57 574.68 63.01C571.38 64.39 567.72 65.08 563.7 65.08ZM563.7 58.33C566.4 58.33 568.89 57.85 571.17 56.89C573.45 55.93 575.4 54.55 577.02 52.75C578.7 50.95 579.99 48.79 580.89 46.27C581.79 43.75 582.24 40.93 582.24 37.81V27.37C582.24 24.25 581.79 21.43 580.89 18.91C579.99 16.39 578.7 14.23 577.02 12.43C575.4 10.63 573.45 9.25 571.17 8.29C568.89 7.33 566.4 6.85 563.7 6.85C561 6.85 558.51 7.33 556.23 8.29C553.95 9.25 551.97 10.63 550.29 12.43C548.67 14.23 547.41 16.39 546.51 18.91C545.61 21.43 545.16 24.25 545.16 27.37V37.81C545.16 40.93 545.61 43.75 546.51 46.27C547.41 48.79 548.67 50.95 550.29 52.75C551.97 54.55 553.95 55.93 556.23 56.89C558.51 57.85 561 58.33 563.7 58.33ZM678.721 65.08C674.641 65.08 670.951 64.39 667.651 63.01C664.411 61.57 661.621 59.5 659.281 56.8C657.001 54.04 655.231 50.65 653.971 46.63C652.711 42.55 652.081 37.87 652.081 32.59C652.081 27.31 652.711 22.66 653.971 18.64C655.231 14.62 657.001 11.23 659.281 8.47C661.621 5.71 664.411 3.64 667.651 2.26C670.951 0.819996 674.641 0.0999966 678.721 0.0999966C682.741 0.0999966 686.401 0.819996 689.701 2.26C693.001 3.64 695.791 5.71 698.071 8.47C700.411 11.23 702.211 14.62 703.471 18.64C704.731 22.66 705.361 27.31 705.361 32.59C705.361 37.87 704.731 42.55 703.471 46.63C702.211 50.65 700.411 54.04 698.071 56.8C695.791 59.5 693.001 61.57 689.701 63.01C686.401 64.39 682.741 65.08 678.721 65.08ZM678.721 58.33C681.421 58.33 683.911 57.85 686.191 56.89C688.471 55.93 690.421 54.55 692.041 52.75C693.721 50.95 695.011 48.79 695.911 46.27C696.811 43.75 697.261 40.93 697.261 37.81V27.37C697.261 24.25 696.811 21.43 695.911 18.91C695.011 16.39 693.721 14.23 692.041 12.43C690.421 10.63 688.471 9.25 686.191 8.29C683.911 7.33 681.421 6.85 678.721 6.85C676.021 6.85 673.531 7.33 671.251 8.29C668.971 9.25 666.991 10.63 665.311 12.43C663.691 14.23 662.431 16.39 661.531 18.91C660.631 21.43 660.181 24.25 660.181 27.37V37.81C660.181 40.93 660.631 43.75 661.531 46.27C662.431 48.79 663.691 50.95 665.311 52.75C666.991 54.55 668.971 55.93 671.251 56.89C673.531 57.85 676.021 58.33 678.721 58.33ZM786.722 33.13L777.812 43.03V64H770.252V1.18H777.812V34.57H778.082L787.082 23.68L806.072 1.18H815.342L791.942 28.09L816.962 64H807.602L786.722 33.13ZM875.623 64V57.7H884.443V7.48H875.623V1.18H900.823V7.48H892.003V57.7H900.823V64H875.623ZM981.138 25.66L973.578 11.71H973.308V64H965.928V1.18H974.658L997.608 39.52L1005.17 53.47H1005.44V1.18H1012.82V64H1004.09L981.138 25.66ZM1121.54 54.82H1121.27C1120.49 57.76 1118.57 60.22 1115.51 62.2C1112.51 64.12 1108.61 65.08 1103.81 65.08C1099.97 65.08 1096.43 64.39 1093.19 63.01C1090.01 61.57 1087.28 59.5 1085 56.8C1082.72 54.04 1080.92 50.65 1079.6 46.63C1078.34 42.55 1077.71 37.87 1077.71 32.59C1077.71 27.37 1078.34 22.75 1079.6 18.73C1080.86 14.65 1082.66 11.26 1085 8.55999C1087.34 5.79999 1090.16 3.69999 1093.46 2.26C1096.76 0.819996 1100.42 0.0999966 1104.44 0.0999966C1110.08 0.0999966 1114.79 1.36 1118.57 3.88C1122.35 6.4 1125.26 9.73 1127.3 13.87L1121.09 17.65C1119.65 14.29 1117.49 11.65 1114.61 9.73C1111.79 7.81 1108.4 6.85 1104.44 6.85C1101.68 6.85 1099.16 7.36 1096.88 8.38C1094.6 9.34 1092.62 10.72 1090.94 12.52C1089.32 14.32 1088.06 16.48 1087.16 19C1086.26 21.52 1085.81 24.34 1085.81 27.46V37.63C1085.81 40.75 1086.26 43.6 1087.16 46.18C1088.06 48.7 1089.32 50.86 1090.94 52.66C1092.62 54.46 1094.66 55.87 1097.06 56.89C1099.46 57.85 1102.16 58.33 1105.16 58.33C1107.32 58.33 1109.36 58.06 1111.28 57.52C1113.26 56.92 1114.97 56.05 1116.41 54.91C1117.91 53.77 1119.08 52.36 1119.92 50.68C1120.76 48.94 1121.18 46.9 1121.18 44.56V38.35H1107.32V31.69H1128.56V64H1121.54V54.82ZM1212.38 65.08C1207.28 65.08 1202.93 64.12 1199.33 62.2C1195.73 60.22 1192.67 57.52 1190.15 54.1L1195.73 49.42C1197.95 52.36 1200.41 54.61 1203.11 56.17C1205.81 57.67 1208.99 58.42 1212.65 58.42C1217.15 58.42 1220.57 57.34 1222.91 55.18C1225.31 53.02 1226.51 50.14 1226.51 46.54C1226.51 43.54 1225.61 41.23 1223.81 39.61C1222.01 37.99 1219.04 36.7 1214.9 35.74L1209.77 34.57C1204.01 33.25 1199.6 31.27 1196.54 28.63C1193.54 25.93 1192.04 22.15 1192.04 17.29C1192.04 14.53 1192.55 12.07 1193.57 9.91C1194.59 7.75 1196 5.95 1197.8 4.51C1199.66 3.07 1201.85 1.99 1204.37 1.27C1206.95 0.489997 1209.77 0.0999966 1212.83 0.0999966C1217.57 0.0999966 1221.62 0.969996 1224.98 2.71C1228.4 4.45 1231.28 7 1233.62 10.36L1227.95 14.5C1226.21 12.1 1224.11 10.21 1221.65 8.83C1219.19 7.45 1216.13 6.76 1212.47 6.76C1208.45 6.76 1205.27 7.63 1202.93 9.37C1200.65 11.05 1199.51 13.6 1199.51 17.02C1199.51 20.02 1200.47 22.3 1202.39 23.86C1204.37 25.36 1207.34 26.56 1211.3 27.46L1216.43 28.63C1222.61 30.01 1227.08 32.11 1229.84 34.93C1232.6 37.75 1233.98 41.5 1233.98 46.18C1233.98 49.06 1233.47 51.67 1232.45 54.01C1231.49 56.35 1230.08 58.33 1228.22 59.95C1226.36 61.57 1224.08 62.83 1221.38 63.73C1218.74 64.63 1215.74 65.08 1212.38 65.08ZM404.151 198.08C400.071 198.08 396.381 197.39 393.081 196.01C389.841 194.57 387.051 192.5 384.711 189.8C382.431 187.04 380.661 183.65 379.401 179.63C378.141 175.55 377.511 170.87 377.511 165.59C377.511 160.31 378.141 155.66 379.401 151.64C380.661 147.62 382.431 144.23 384.711 141.47C387.051 138.71 389.841 136.64 393.081 135.26C396.381 133.82 400.071 133.1 404.151 133.1C408.171 133.1 411.831 133.82 415.131 135.26C418.431 136.64 421.221 138.71 423.501 141.47C425.841 144.23 427.641 147.62 428.901 151.64C430.161 155.66 430.791 160.31 430.791 165.59C430.791 170.87 430.161 175.55 428.901 179.63C427.641 183.65 425.841 187.04 423.501 189.8C421.221 192.5 418.431 194.57 415.131 196.01C411.831 197.39 408.171 198.08 404.151 198.08ZM404.151 191.33C406.851 191.33 409.341 190.85 411.621 189.89C413.901 188.93 415.851 187.55 417.471 185.75C419.151 183.95 420.441 181.79 421.341 179.27C422.241 176.75 422.691 173.93 422.691 170.81V160.37C422.691 157.25 422.241 154.43 421.341 151.91C420.441 149.39 419.151 147.23 417.471 145.43C415.851 143.63 413.901 142.25 411.621 141.29C409.341 140.33 406.851 139.85 404.151 139.85C401.451 139.85 398.961 140.33 396.681 141.29C394.401 142.25 392.421 143.63 390.741 145.43C389.121 147.23 387.861 149.39 386.961 151.91C386.061 154.43 385.611 157.25 385.611 160.37V170.81C385.611 173.93 386.061 176.75 386.961 179.27C387.861 181.79 389.121 183.95 390.741 185.75C392.421 187.55 394.401 188.93 396.681 189.89C398.961 190.85 401.451 191.33 404.151 191.33ZM534.832 197V134.18H559.852C565.492 134.18 569.812 135.8 572.812 139.04C575.872 142.22 577.402 146.6 577.402 152.18C577.402 157.76 575.872 162.17 572.812 165.41C569.812 168.59 565.492 170.18 559.852 170.18H542.392V197H534.832ZM542.392 163.52H559.852C562.852 163.52 565.162 162.74 566.782 161.18C568.462 159.62 569.302 157.4 569.302 154.52V149.84C569.302 146.96 568.462 144.74 566.782 143.18C565.162 141.62 562.852 140.84 559.852 140.84H542.392V163.52ZM679.862 197V134.18H718.202V140.84H687.422V161.9H716.402V168.56H687.422V190.34H718.202V197H679.862ZM837.992 158.66L830.432 144.71H830.162V197H822.782V134.18H831.512L854.462 172.52L862.022 186.47H862.292V134.18H869.672V197H860.942L837.992 158.66Z" fill="url(#paint0_linear_407_18)"/>
<defs>
<linearGradient id="paint0_linear_407_18" x1="36.2547" y1="101.5" x2="1569.87" y2="514.653" gradientUnits="userSpaceOnUse">
<stop stop-color="white"/>
<stop offset="0.854167" stop-color="#DD63E8"/>
<stop offset="1" stop-color="#4528C4"/>
</linearGradient>
</defs>
</svg>
