<svg width="105" height="104" viewBox="0 0 105 104" fill="none" xmlns="http://www.w3.org/2000/svg">
<path d="M52.5 89.44C39.375 89.44 27.7725 82.784 21 72.8C21.1575 62.4 42 56.68 52.5 56.68C63 56.68 83.8425 62.4 84 72.8C80.5292 77.9189 75.8408 82.114 70.3477 85.0157C64.8546 87.9175 58.7255 89.4368 52.5 89.44ZM52.5 15.6C56.6772 15.6 60.6832 17.2436 63.6369 20.1691C66.5906 23.0947 68.25 27.0626 68.25 31.2C68.25 35.3374 66.5906 39.3053 63.6369 42.2309C60.6832 45.1564 56.6772 46.8 52.5 46.8C48.3228 46.8 44.3168 45.1564 41.3631 42.2309C38.4094 39.3053 36.75 35.3374 36.75 31.2C36.75 27.0626 38.4094 23.0947 41.3631 20.1691C44.3168 17.2436 48.3228 15.6 52.5 15.6ZM52.5 0C45.6056 0 38.7787 1.34502 32.4091 3.95826C26.0395 6.57151 20.252 10.4018 15.3769 15.2304C5.53123 24.9823 0 38.2087 0 52C0 65.7913 5.53123 79.0177 15.3769 88.7695C20.252 93.5982 26.0395 97.4285 32.4091 100.042C38.7787 102.655 45.6056 104 52.5 104C66.4239 104 79.7774 98.5214 89.6231 88.7695C99.4688 79.0177 105 65.7913 105 52C105 23.244 81.375 0 52.5 0Z" fill="url(#paint0_linear_210_1955)"/>
<defs>
<linearGradient id="paint0_linear_210_1955" x1="126.5" y1="64" x2="10.7797" y2="20.1387" gradientUnits="userSpaceOnUse">
<stop stop-color="white"/>
<stop offset="0.46875" stop-color="#E96BF5"/>
<stop offset="1" stop-color="#0D11B4"/>
</linearGradient>
</defs>
</svg>
