<svg width="97" height="151" viewBox="0 0 97 151" fill="none" xmlns="http://www.w3.org/2000/svg">
<path d="M48.5013 0.916504C42.5671 0.916504 36.8759 3.27386 32.6798 7.46999C28.4837 11.6661 26.1263 17.3573 26.1263 23.2915C26.1263 29.2257 28.4837 34.9169 32.6798 39.113C36.8759 43.3091 42.5671 45.6665 48.5013 45.6665C54.4355 45.6665 60.1267 43.3091 64.3228 39.113C68.5189 34.9169 70.8763 29.2257 70.8763 23.2915C70.8763 17.3573 68.5189 11.6661 64.3228 7.46999C60.1267 3.27386 54.4355 0.916504 48.5013 0.916504ZM48.5013 53.1248C36.3442 53.1248 25.2313 55.7353 14.9388 60.9561C4.94463 66.2515 0.0221252 72.5911 0.0221252 80.0494V123.084C0.0221252 131.437 6.43629 138.448 19.4884 144.042V127.708C19.4884 120.623 25.9025 115.626 38.7309 112.568C42.9075 111.598 46.1892 111.151 48.5013 111.151C54.99 111.151 61.1805 112.419 66.8488 115.029C72.5917 117.565 76.0226 120.847 77.1413 124.799C67.1471 128.752 57.6005 130.766 48.5013 130.766L41.043 130.02V149.636L48.5013 150.083C58.486 150.097 68.365 148.04 77.5142 144.042C90.5663 138.448 96.9805 131.437 96.9805 123.084V80.0494C96.9805 72.5911 92.058 66.2515 82.0638 60.9561C71.7713 55.7353 60.5838 53.1248 48.5013 53.1248ZM48.5013 68.0415C52.4574 68.0415 56.2516 69.6131 59.049 72.4105C61.8464 75.2079 63.418 79.002 63.418 82.9582C63.418 86.9143 61.8464 90.7084 59.049 93.5058C56.2516 96.3033 52.4574 97.8748 48.5013 97.8748C44.5452 97.8748 40.751 96.3033 37.9536 93.5058C35.1562 90.7084 33.5846 86.9143 33.5846 82.9582C33.5846 79.002 35.1562 75.2079 37.9536 72.4105C40.751 69.6131 44.5452 68.0415 48.5013 68.0415Z" fill="url(#paint0_linear_210_1832)"/>
<defs>
<linearGradient id="paint0_linear_210_1832" x1="-6.49902" y1="-21" x2="92.001" y2="154.5" gradientUnits="userSpaceOnUse">
<stop stop-color="white"/>
<stop offset="0.427342" stop-color="#E96BF5"/>
<stop offset="1" stop-color="#0D11B4" stop-opacity="0.99236"/>
</linearGradient>
</defs>
</svg>
