<svg width="119" height="118" viewBox="0 0 119 118" fill="none" xmlns="http://www.w3.org/2000/svg">
<path d="M59.5 0C26.656 0 0 26.432 0 59C0 91.568 26.656 118 59.5 118C92.344 118 119 91.568 119 59C119 26.432 92.344 0 59.5 0ZM80.9795 37.406C87.346 37.406 92.463 42.48 92.463 48.793C92.463 55.106 87.346 60.18 80.9795 60.18C74.613 60.18 69.496 55.106 69.496 48.793C69.4365 42.48 74.613 37.406 80.9795 37.406ZM45.2795 28.084C53.0145 28.084 59.3215 34.338 59.3215 42.008C59.3215 49.678 53.0145 55.932 45.2795 55.932C37.5445 55.932 31.2375 49.678 31.2375 42.008C31.2375 34.279 37.485 28.084 45.2795 28.084ZM45.2795 81.951V104.076C30.9995 99.651 19.6945 88.736 14.6965 74.812C20.944 68.204 36.533 64.841 45.2795 64.841C48.433 64.841 52.4195 65.313 56.5845 66.139C46.8265 71.272 45.2795 78.057 45.2795 81.951ZM59.5 106.2C57.8935 106.2 56.3465 106.141 54.7995 105.964V81.951C54.7995 73.573 72.2925 69.384 80.9795 69.384C87.346 69.384 98.3535 71.685 103.827 76.169C96.866 93.692 79.6705 106.2 59.5 106.2Z" fill="url(#paint0_linear_210_1828)"/>
<defs>
<linearGradient id="paint0_linear_210_1828" x1="141" y1="-9" x2="10.0158" y2="104.518" gradientUnits="userSpaceOnUse">
<stop offset="0.25" stop-color="#0D11B4"/>
<stop offset="0.75" stop-color="#E96BF5"/>
<stop offset="1" stop-color="white"/>
</linearGradient>
</defs>
</svg>
