<svg width="481" height="686" viewBox="0 0 481 686" fill="none" xmlns="http://www.w3.org/2000/svg">
<g filter="url(#filter0_i_210_2013)">
<path d="M388.745 614.36V71.061C388.745 31.8151 420.56 0 459.806 0C499.052 0 530.867 31.815 530.867 71.061V614.36C530.867 653.606 499.052 685.421 459.806 685.421C420.56 685.421 388.745 653.606 388.745 614.36Z" fill="url(#paint0_linear_210_2013)"/>
<path d="M278.958 128.046H466.844C502.203 128.046 530.867 99.3817 530.867 64.0228C530.867 28.664 502.203 0 466.844 0H259.472C177.807 0 103.663 47.6852 69.7885 121.993L68.5241 124.767C43.6463 179.34 44.3106 242.146 70.3372 296.181C104 366.069 174.717 410.499 252.29 410.499H267.523H464.961C501.36 410.499 530.867 380.992 530.867 344.594C530.867 308.195 501.36 278.688 464.961 278.688H276.879C270.666 278.688 264.477 277.916 258.454 276.39C185.014 257.78 184.152 153.866 256.521 131.453C263.762 129.21 271.378 128.046 278.958 128.046Z" fill="url(#paint1_linear_210_2013)"/>
</g>
<defs>
<filter id="filter0_i_210_2013" x="50.332" y="0" width="507.535" height="713.421" filterUnits="userSpaceOnUse" color-interpolation-filters="sRGB">
<feFlood flood-opacity="0" result="BackgroundImageFix"/>
<feBlend mode="normal" in="SourceGraphic" in2="BackgroundImageFix" result="shape"/>
<feColorMatrix in="SourceAlpha" type="matrix" values="0 0 0 0 0 0 0 0 0 0 0 0 0 0 0 0 0 0 127 0" result="hardAlpha"/>
<feOffset dx="27" dy="28"/>
<feGaussianBlur stdDeviation="14"/>
<feComposite in2="hardAlpha" operator="arithmetic" k2="-1" k3="1"/>
<feColorMatrix type="matrix" values="0 0 0 0 0 0 0 0 0 0 0 0 0 0 0 0 0 0 0.35 0"/>
<feBlend mode="normal" in2="shape" result="effect1_innerShadow_210_2013"/>
</filter>
<linearGradient id="paint0_linear_210_2013" x1="459.737" y1="909.392" x2="459.737" y2="9.67434" gradientUnits="userSpaceOnUse">
<stop stop-color="#0D11B4"/>
<stop offset="1" stop-color="#E96BF5"/>
</linearGradient>
<linearGradient id="paint1_linear_210_2013" x1="265.173" y1="544.636" x2="265.174" y2="5.79397" gradientUnits="userSpaceOnUse">
<stop stop-color="#0D11B4"/>
<stop offset="1" stop-color="#E96BF5"/>
</linearGradient>
</defs>
</svg>
