<svg width="298" height="328" viewBox="0 0 298 328" fill="none" xmlns="http://www.w3.org/2000/svg">
<path d="M53.819 325H13.582C8.86799 325 6.51096 325 5.0465 323.535C3.58203 322.071 3.58203 319.714 3.58203 315L3.58203 275.118" stroke="black" stroke-width="6" stroke-linejoin="round"/>
<path d="M244.547 325H284.784C289.498 325 291.855 325 293.319 323.535C294.784 322.071 294.784 319.714 294.784 315V273.871" stroke="black" stroke-width="6" stroke-linejoin="round"/>
<path d="M54.4053 3L13 3C8.28595 3 5.92893 3 4.46447 4.46447C3 5.92893 3 8.28595 3 13L3 52.8816" stroke="black" stroke-width="6" stroke-linejoin="round"/>
<path d="M244.254 3L283.323 3C288.037 3 290.394 3 291.858 4.46447C293.323 5.92893 293.323 8.28595 293.323 13V55.3757" stroke="black" stroke-width="6" stroke-linejoin="round"/>
<path d="M49.2245 140.891C47.8833 139.886 47.0656 138.619 46.7712 137.09C46.4694 135.57 46.883 133.99 48.0121 132.35C59.6757 114.932 74.3679 101.355 92.0887 91.6192C109.817 81.8831 128.773 76.921 148.956 76.733C169.139 76.545 188.217 80.998 206.191 90.092C224.165 99.1942 239.221 112.445 251.359 129.845C252.707 131.665 253.147 133.29 252.679 134.72C252.218 136.15 251.421 137.379 250.287 138.408C249.153 139.436 247.824 139.905 246.3 139.813C244.776 139.73 243.436 138.879 242.28 137.26C231.678 121.475 218.109 109.432 201.574 101.131C185.031 92.8387 167.525 88.7783 149.056 88.9504C130.586 89.1224 113.294 93.5069 97.1786 102.104C81.0633 110.709 67.7393 123.003 57.2065 138.984C56.079 140.828 54.7545 141.858 53.233 142.076C51.7114 142.294 50.3752 141.899 49.2245 140.891ZM182.977 290.235C163.132 285.126 146.861 274.737 134.166 259.069C121.47 243.41 115.029 224.177 114.842 201.371C114.759 191.19 118.116 182.606 124.914 175.619C131.712 168.632 139.967 165.094 149.677 165.003C159.388 164.913 167.699 168.297 174.61 175.156C181.521 182.016 185.018 190.536 185.102 200.717C185.157 207.437 187.583 213.067 192.381 217.608C197.178 222.141 202.814 224.378 209.287 224.317C215.761 224.257 221.264 221.917 225.797 217.297C230.329 212.669 232.567 206.995 232.513 200.275C232.319 176.655 224.065 156.877 207.749 140.942C191.433 125.007 172.041 117.144 149.573 117.353C127.106 117.562 107.845 125.785 91.7924 142.022C75.7395 158.259 67.8088 178.086 68.0003 201.502C68.0402 206.389 68.5205 212.494 69.441 219.816C70.354 227.139 72.4689 235.672 75.7857 245.416C76.3719 247.243 76.3395 248.872 75.6885 250.304C75.0299 251.735 73.9415 252.764 72.4233 253.389C70.905 254.014 69.4271 253.975 67.9894 253.271C66.5593 252.576 65.5521 251.416 64.9675 249.793C62.0465 241.878 59.9371 234.005 58.6391 226.173C57.3336 218.349 56.6467 210.263 56.5785 201.914C56.3571 174.832 65.3604 152.043 83.5884 133.546C101.809 115.049 123.676 105.681 149.19 105.444C174.895 105.204 197.057 114.162 215.676 132.315C234.295 150.469 243.715 173.087 243.937 200.169C244.02 210.35 240.712 218.885 234.012 225.773C227.305 232.653 219.096 236.139 209.385 236.229C199.674 236.32 191.318 232.989 184.316 226.236C177.307 219.475 173.761 211.005 173.677 200.823C173.622 194.104 171.246 188.473 166.547 183.931C161.841 179.397 156.251 177.16 149.777 177.22C143.303 177.281 137.751 179.621 133.12 184.242C128.496 188.871 126.212 194.546 126.267 201.265C126.428 221.016 132.039 237.459 143.099 250.592C154.152 263.726 168.363 272.859 185.733 277.992C187.452 278.586 188.603 279.594 189.186 281.014C189.769 282.434 189.876 283.96 189.509 285.593C189.14 287.022 188.388 288.25 187.254 289.279C186.12 290.308 184.694 290.627 182.977 290.235ZM85.8315 76.7101C84.3166 77.7424 82.7954 78.0091 81.268 77.5102C79.7406 77.0194 78.5894 75.963 77.8145 74.3412C77.0396 72.7193 76.8371 71.2428 77.2071 69.9116C77.5771 68.5886 78.5195 67.4109 80.0344 66.3786C90.6472 60.1706 101.748 55.3836 113.336 52.0174C124.924 48.6513 136.715 46.9124 148.711 46.8006C160.897 46.6871 172.81 48.1523 184.45 51.1962C196.091 54.2482 207.362 58.6762 218.263 64.4801C219.985 65.4823 220.997 66.6947 221.298 68.1173C221.591 69.54 221.458 70.9667 220.899 72.3974C220.339 73.8281 219.396 74.9569 218.07 75.7838C216.744 76.6107 215.125 76.524 213.212 75.5236C203.076 70.1198 192.615 65.9897 181.829 63.1334C171.051 60.2851 160.045 58.9133 148.811 59.0179C137.767 59.1208 126.926 60.5943 116.285 63.4385C105.645 66.2908 95.4939 70.7146 85.8315 76.7101ZM121.251 286.534C109.914 274.014 101.195 261.213 95.0935 248.131C88.9846 235.058 85.8569 219.562 85.7104 201.643C85.5589 183.113 91.7145 167.425 104.177 154.577C116.64 141.738 131.725 135.236 149.433 135.071C167.14 134.906 182.425 141.125 195.286 153.729C208.147 166.34 214.653 181.911 214.805 200.44C214.82 202.273 214.306 203.752 213.264 204.878C212.23 206.011 210.856 206.586 209.143 206.602C207.619 206.616 206.282 206.067 205.13 204.953C203.979 203.848 203.396 202.379 203.381 200.547C203.256 185.275 197.866 172.545 187.21 162.356C176.563 152.176 164.003 147.153 149.533 147.288C135.062 147.423 122.678 152.678 112.381 163.054C102.092 173.437 97.0098 186.265 97.1347 201.536C97.2695 218.03 100.05 232.002 105.475 243.453C110.9 254.912 118.802 266.397 129.178 277.907C130.331 279.118 130.914 280.539 130.927 282.168C130.94 283.796 130.381 285.227 129.248 286.46C128.116 287.692 126.788 288.315 125.265 288.329C123.741 288.344 122.404 287.745 121.251 286.534ZM207.335 264.961C190.389 265.119 175.628 259.147 163.053 247.046C150.485 234.945 144.126 219.63 143.974 201.1C143.961 199.471 144.471 198.041 145.504 196.809C146.546 195.578 147.923 194.954 149.636 194.938C151.35 194.922 152.737 195.52 153.798 196.732C154.852 197.944 155.385 199.365 155.399 200.994C155.523 216.265 160.767 228.74 171.129 238.418C181.49 248.096 193.526 252.872 207.235 252.744C208.377 252.733 209.995 252.616 212.088 252.393C214.18 252.17 216.368 251.844 218.649 251.416C220.359 250.992 221.839 251.231 223.088 252.132C224.329 253.041 225.148 254.41 225.544 256.239C225.938 257.864 225.664 259.292 224.722 260.523C223.78 261.753 222.549 262.579 221.029 263.001C217.61 264.051 214.618 264.641 212.052 264.771C209.478 264.892 207.906 264.956 207.335 264.961Z" fill="url(#paint0_radial_210_1939)"/>
<defs>
<radialGradient id="paint0_radial_210_1939" cx="0" cy="0" r="1" gradientUnits="userSpaceOnUse" gradientTransform="translate(150.045 168.752) rotate(89.5316) scale(121.959 103.099)">
<stop offset="0.328125" stop-color="#E96BF5"/>
<stop offset="1" stop-color="#0D11B4"/>
</radialGradient>
</defs>
</svg>
