<svg width="76" height="75" viewBox="0 0 76 75" fill="none" xmlns="http://www.w3.org/2000/svg">
<path d="M37.5249 64.2209C28.1437 64.2209 19.8507 59.4495 15.01 52.2924C15.1225 44.8372 30.0199 40.7368 37.5249 40.7368C45.0299 40.7368 59.9273 44.8372 60.0399 52.2924C57.5591 55.962 54.208 58.9692 50.2817 61.0493C46.3555 63.1295 41.9746 64.2186 37.5249 64.2209ZM37.5249 11.2884C40.5106 11.2884 43.374 12.4666 45.4852 14.5638C47.5964 16.661 48.7824 19.5054 48.7824 22.4713C48.7824 25.4372 47.5964 28.2816 45.4852 30.3788C43.374 32.476 40.5106 33.6542 37.5249 33.6542C34.5393 33.6542 31.6759 32.476 29.5647 30.3788C27.4535 28.2816 26.2674 25.4372 26.2674 22.4713C26.2674 19.5054 27.4535 16.661 29.5647 14.5638C31.6759 12.4666 34.5393 11.2884 37.5249 11.2884ZM37.5249 0.105469C32.5971 0.105469 27.7175 1.06965 23.1648 2.94297C18.612 4.81628 14.4753 7.56204 10.9908 11.0235C3.95351 18.0142 0 27.4956 0 37.3819C0 47.2682 3.95351 56.7496 10.9908 63.7403C14.4753 67.2017 18.612 69.9475 23.1648 71.8208C27.7175 73.6941 32.5971 74.6583 37.5249 74.6583C47.4772 74.6583 57.0218 70.731 64.0591 63.7403C71.0963 56.7496 75.0499 47.2682 75.0499 37.3819C75.0499 16.768 58.1636 0.105469 37.5249 0.105469Z" fill="url(#paint0_linear_210_2674)"/>
<defs>
<linearGradient id="paint0_linear_210_2674" x1="78.891" y1="30.8733" x2="7.67339" y2="14.6408" gradientUnits="userSpaceOnUse">
<stop stop-color="white"/>
<stop offset="0.46875" stop-color="#E96BF5"/>
<stop offset="1" stop-color="#0D11B4"/>
</linearGradient>
</defs>
</svg>
