<svg width="77" height="77" viewBox="0 0 77 77" fill="none" xmlns="http://www.w3.org/2000/svg">
<path d="M38.5288 0.898438C59.5169 0.898438 76.5508 17.8209 76.5508 38.6719C76.5508 59.5228 59.5169 76.4453 38.5288 76.4453C17.5407 76.4453 0.506889 59.5228 0.506889 38.6719C0.506889 17.8209 17.5407 0.898438 38.5288 0.898438ZM24.8029 24.8468C20.7346 24.8468 17.4647 28.0953 17.4647 32.1371C17.4647 36.1788 20.7346 39.4273 24.8029 39.4273C28.8713 39.4273 32.1411 36.1788 32.1411 32.1371C32.1792 28.0953 28.8713 24.8468 24.8029 24.8468ZM47.6161 18.8786C42.6732 18.8786 38.6429 22.8826 38.6429 27.7931C38.6429 32.7037 42.6732 36.7077 47.6161 36.7077C52.5589 36.7077 56.5893 32.7037 56.5893 27.7931C56.5893 22.8448 52.597 18.8786 47.6161 18.8786ZM47.6161 53.3657V67.5308C56.7413 64.6978 63.9655 57.7097 67.1594 48.7952C63.1671 44.5645 53.2053 42.4114 47.6161 42.4114C45.6009 42.4114 43.0534 42.7136 40.3919 43.2425C46.6275 46.5288 47.6161 50.8727 47.6161 53.3657ZM38.5288 68.8906C39.5554 68.8906 40.544 68.8529 41.5326 68.7395V53.3657C41.5326 48.0019 30.3541 45.32 24.8029 45.32C20.7346 45.32 13.7005 46.7932 10.2025 49.664C14.6511 60.8827 25.6394 68.8906 38.5288 68.8906Z" fill="url(#paint0_linear_210_2665)"/>
<defs>
<linearGradient id="paint0_linear_210_2665" x1="0.406051" y1="-9.30039" x2="76.7237" y2="76.3133" gradientUnits="userSpaceOnUse">
<stop offset="0.169985" stop-color="#0D11B4"/>
<stop offset="0.630726" stop-color="#E96BF5"/>
<stop offset="1" stop-color="white"/>
</linearGradient>
</defs>
</svg>
