<svg width="39" height="51" viewBox="0 0 39 51" fill="none" xmlns="http://www.w3.org/2000/svg">
<path d="M4.875 51C3.53437 51 2.38712 50.5248 1.43325 49.5744C0.47775 48.6224 0 47.4786 0 46.1429V21.8571C0 20.5214 0.47775 19.3776 1.43325 18.4256C2.38712 17.4752 3.53437 17 4.875 17H7.3125V12.1429C7.3125 8.78333 8.50119 5.91924 10.8786 3.55057C13.2543 1.18352 16.1281 0 19.5 0C22.8719 0 25.7465 1.18352 28.1239 3.55057C30.4996 5.91924 31.6875 8.78333 31.6875 12.1429V17H34.125C35.4656 17 36.6137 17.4752 37.5692 18.4256C38.5231 19.3776 39 20.5214 39 21.8571V46.1429C39 47.4786 38.5231 48.6224 37.5692 49.5744C36.6137 50.5248 35.4656 51 34.125 51H4.875ZM19.5 38.8571C20.8406 38.8571 21.9887 38.382 22.9442 37.4316C23.8981 36.4796 24.375 35.3357 24.375 34C24.375 32.6643 23.8981 31.5204 22.9442 30.5684C21.9887 29.618 20.8406 29.1429 19.5 29.1429C18.1594 29.1429 17.0121 29.618 16.0583 30.5684C15.1028 31.5204 14.625 32.6643 14.625 34C14.625 35.3357 15.1028 36.4796 16.0583 37.4316C17.0121 38.382 18.1594 38.8571 19.5 38.8571ZM12.1875 17H26.8125V12.1429C26.8125 10.119 26.1016 8.39881 24.6797 6.98214C23.2578 5.56548 21.5312 4.85714 19.5 4.85714C17.4688 4.85714 15.7422 5.56548 14.3203 6.98214C12.8984 8.39881 12.1875 10.119 12.1875 12.1429V17Z" fill="#00BB29"/>
</svg>
