<svg width="755" height="709" viewBox="0 0 755 709" fill="none" xmlns="http://www.w3.org/2000/svg">
<g filter="url(#filter0_i_465_4)">
<path d="M216.359 466.549L214.63 84.4969C214.425 39.1741 251 2.26645 296.323 2.06133C341.645 1.85622 378.553 38.4313 378.758 83.7541L380.487 465.806C380.692 511.129 344.117 548.036 298.794 548.241C253.472 548.447 216.564 511.871 216.359 466.549Z" fill="url(#paint0_linear_465_4)"/>
</g>
<g filter="url(#filter1_i_465_4)">
<path d="M74.3704 514.685L624.568 211.471C664.263 189.596 709.153 206.335 724.832 248.86C740.512 291.386 721.043 343.593 681.348 365.469L131.151 668.683C91.456 690.559 46.566 673.819 30.8865 631.294C15.2069 588.768 34.6754 536.561 74.3704 514.685Z" fill="url(#paint1_linear_465_4)"/>
</g>
<defs>
<filter id="filter0_i_465_4" x="214.629" y="2.06055" width="187.859" height="568.182" filterUnits="userSpaceOnUse" color-interpolation-filters="sRGB">
<feFlood flood-opacity="0" result="BackgroundImageFix"/>
<feBlend mode="normal" in="SourceGraphic" in2="BackgroundImageFix" result="shape"/>
<feColorMatrix in="SourceAlpha" type="matrix" values="0 0 0 0 0 0 0 0 0 0 0 0 0 0 0 0 0 0 127 0" result="hardAlpha"/>
<feOffset dx="27" dy="33"/>
<feGaussianBlur stdDeviation="11"/>
<feComposite in2="hardAlpha" operator="arithmetic" k2="-1" k3="1"/>
<feColorMatrix type="matrix" values="0 0 0 0 0 0 0 0 0 0 0 0 0 0 0 0 0 0 0.25 0"/>
<feBlend mode="normal" in2="shape" result="effect1_innerShadow_465_4"/>
</filter>
<filter id="filter1_i_465_4" x="25.4609" y="201.862" width="726.797" height="498.429" filterUnits="userSpaceOnUse" color-interpolation-filters="sRGB">
<feFlood flood-opacity="0" result="BackgroundImageFix"/>
<feBlend mode="normal" in="SourceGraphic" in2="BackgroundImageFix" result="shape"/>
<feColorMatrix in="SourceAlpha" type="matrix" values="0 0 0 0 0 0 0 0 0 0 0 0 0 0 0 0 0 0 127 0" result="hardAlpha"/>
<feOffset dx="27" dy="33"/>
<feGaussianBlur stdDeviation="11"/>
<feComposite in2="hardAlpha" operator="arithmetic" k2="-1" k3="1"/>
<feColorMatrix type="matrix" values="0 0 0 0 0 0 0 0 0 0 0 0 0 0 0 0 0 0 0.25 0"/>
<feBlend mode="normal" in2="shape" result="effect1_innerShadow_465_4"/>
</filter>
<linearGradient id="paint0_linear_465_4" x1="299.522" y1="726.714" x2="296.277" y2="9.77073" gradientUnits="userSpaceOnUse">
<stop stop-color="#0D11B4"/>
<stop offset="1" stop-color="#E96BF5"/>
</linearGradient>
<linearGradient id="paint1_linear_465_4" x1="-195.898" y1="756.184" x2="768.936" y2="400.439" gradientUnits="userSpaceOnUse">
<stop stop-color="#0D11B4"/>
<stop offset="1" stop-color="#E96BF5"/>
</linearGradient>
</defs>
</svg>
