<svg width="33" height="44" viewBox="0 0 33 44" fill="none" xmlns="http://www.w3.org/2000/svg">
<path d="M4.22578 43.7778C3.11525 43.7778 2.16491 43.3749 1.37475 42.5691C0.583251 41.7619 0.1875 40.7921 0.1875 39.6596V19.0688C0.1875 17.9363 0.583251 16.9665 1.37475 16.1593C2.16491 15.3536 3.11525 14.9507 4.22578 14.9507H6.24492V10.8325C6.24492 7.98411 7.22958 5.55577 9.19892 3.54748C11.1669 1.54057 13.5475 0.537109 16.3406 0.537109C19.1338 0.537109 21.515 1.54057 23.4843 3.54748C25.4523 5.55577 26.4363 7.98411 26.4363 10.8325V14.9507H28.4554C29.566 14.9507 30.517 15.3536 31.3085 16.1593C32.0986 16.9665 32.4937 17.9363 32.4937 19.0688V39.6596C32.4937 40.7921 32.0986 41.7619 31.3085 42.5691C30.517 43.3749 29.566 43.7778 28.4554 43.7778H4.22578ZM16.3406 33.4824C17.4511 33.4824 18.4022 33.0795 19.1937 32.2737C19.9838 31.4665 20.3789 30.4967 20.3789 29.3642C20.3789 28.2317 19.9838 27.2619 19.1937 26.4547C18.4022 25.6489 17.4511 25.2461 16.3406 25.2461C15.2301 25.2461 14.2797 25.6489 13.4896 26.4547C12.6981 27.2619 12.3023 28.2317 12.3023 29.3642C12.3023 30.4967 12.6981 31.4665 13.4896 32.2737C14.2797 33.0795 15.2301 33.4824 16.3406 33.4824ZM10.2832 14.9507H22.398V10.8325C22.398 9.1166 21.8091 7.65809 20.6313 6.45696C19.4535 5.25583 18.0232 4.65527 16.3406 4.65527C14.658 4.65527 13.2278 5.25583 12.0499 6.45696C10.8721 7.65809 10.2832 9.1166 10.2832 10.8325V14.9507Z" fill="url(#paint0_linear_210_2707)"/>
<defs>
<linearGradient id="paint0_linear_210_2707" x1="16.5891" y1="-11.1428" x2="16.3406" y2="43.7778" gradientUnits="userSpaceOnUse">
<stop stop-color="white"/>
<stop offset="0.432292" stop-color="#F052FF"/>
<stop offset="1" stop-color="#0D11B4"/>
</linearGradient>
</defs>
</svg>
