<svg width="33" height="33" viewBox="0 0 33 33" fill="none" xmlns="http://www.w3.org/2000/svg">
<path d="M25.74 5.50002H7.38375C7.14715 5.48894 6.91068 5.52462 6.68789 5.60504C6.4651 5.68546 6.26036 5.80903 6.08538 5.96868C5.91041 6.12833 5.76864 6.32092 5.66819 6.53543C5.56774 6.74993 5.51059 6.98215 5.5 7.21877V25.6163C5.51386 26.1115 5.71678 26.5826 6.06709 26.9329C6.4174 27.2832 6.88853 27.4862 7.38375 27.5H25.74C26.2214 27.4786 26.6753 27.2694 27.0043 26.9172C27.3333 26.5651 27.5113 26.0981 27.5 25.6163V7.21877C27.5039 6.98846 27.4608 6.75978 27.3732 6.54674C27.2856 6.33371 27.1554 6.14081 26.9906 5.97987C26.8258 5.81894 26.6299 5.69337 26.4148 5.61085C26.1998 5.52834 25.9701 5.49062 25.74 5.50002ZM12.375 23.8425H9.17125V14.0388H12.375V23.8425ZM10.8487 12.5538C10.6252 12.5616 10.4024 12.523 10.1945 12.4406C9.9865 12.3582 9.79783 12.2337 9.6403 12.0748C9.48276 11.916 9.35978 11.7263 9.27906 11.5177C9.19834 11.3091 9.16164 11.086 9.17125 10.8625C9.16137 10.6366 9.19881 10.4111 9.28118 10.2005C9.36355 9.98996 9.48903 9.79892 9.64957 9.63968C9.81011 9.48043 10.0022 9.3565 10.2134 9.27584C10.4247 9.19517 10.6504 9.15956 10.8762 9.17127C11.0998 9.16348 11.3226 9.20201 11.5305 9.28442C11.7385 9.36684 11.9272 9.49137 12.0847 9.6502C12.2422 9.80902 12.3652 9.9987 12.4459 10.2073C12.5267 10.416 12.5634 10.639 12.5538 10.8625C12.5636 11.0884 12.5262 11.3139 12.4438 11.5245C12.3614 11.7351 12.236 11.9261 12.0754 12.0854C11.9149 12.2446 11.7228 12.3685 11.5116 12.4492C11.3003 12.5299 11.0746 12.5655 10.8487 12.5538ZM23.8425 23.8425H20.625V18.48C20.625 17.2013 20.1713 16.3213 19.03 16.3213C18.6755 16.3244 18.3306 16.437 18.0426 16.6438C17.7545 16.8505 17.5375 17.1413 17.4213 17.4763C17.3318 17.7274 17.2944 17.994 17.3113 18.26V23.8425H14.1488V14.0388H17.3113V15.4138C17.5924 14.8972 18.0109 14.4685 18.5205 14.1749C19.03 13.8813 19.6109 13.7342 20.1987 13.75C22.275 13.75 23.8425 15.125 23.8425 18.0538V23.8425Z" fill="white"/>
</svg>
