<svg width="28" height="28" viewBox="0 0 28 28" fill="none" xmlns="http://www.w3.org/2000/svg">
<path d="M21.6222 11.3793C22.908 11.3793 24.0801 10.9355 25.036 10.2186V20.4828C25.036 21.7345 24.0118 22.7586 22.7601 22.7586H4.55321C3.30148 22.7586 2.27734 21.7345 2.27734 20.4828V6.8276C2.27734 5.57588 3.30148 4.55174 4.55321 4.55174H16.0463C15.978 4.91588 15.9325 5.30278 15.9325 5.68967C15.9325 7.37381 16.6722 8.8645 17.8329 9.9114L13.6567 12.5173L6.03252 7.74933C5.92494 7.67483 5.80337 7.62294 5.67515 7.59679C5.54694 7.57063 5.41476 7.57077 5.2866 7.59718C5.15844 7.6236 5.03697 7.67574 4.92955 7.75046C4.82213 7.82518 4.73098 7.92091 4.66163 8.03188C4.59228 8.14284 4.54616 8.26672 4.52607 8.39602C4.50599 8.52532 4.51234 8.65736 4.54476 8.78413C4.57717 8.9109 4.63498 9.02978 4.71467 9.13357C4.79436 9.23736 4.89428 9.3239 5.00838 9.38795L13.0536 14.4176C13.4177 14.6452 13.8956 14.6452 14.2598 14.4176L19.6877 11.0266C20.3022 11.2428 20.9394 11.3793 21.6222 11.3793ZM18.2084 5.68967C18.2084 7.57864 19.7332 9.10347 21.6222 9.10347C23.5111 9.10347 25.036 7.57864 25.036 5.68967C25.036 3.80071 23.5111 2.27588 21.6222 2.27588C19.7332 2.27588 18.2084 3.80071 18.2084 5.68967Z" fill="white"/>
</svg>
