<svg width="28" height="28" viewBox="0 0 28 28" fill="none" xmlns="http://www.w3.org/2000/svg">
<g clip-path="url(#clip0_210_1851)">
<path d="M26.7634 8.28906L23.5416 11.5002C22.9015 18.9572 16.6073 24.7499 9.08632 24.7499C7.53945 24.7499 6.25928 24.5046 5.28848 24.0245C4.50971 23.6298 4.18966 23.2137 4.10432 23.0857C4.03371 22.9785 3.9882 22.8567 3.97121 22.7294C3.95421 22.6021 3.96615 22.4726 4.00614 22.3506C4.04613 22.2286 4.11314 22.1172 4.20217 22.0246C4.29121 21.9321 4.39998 21.8609 4.52037 21.8162C4.54171 21.8056 7.05938 20.8454 8.6916 18.9998C7.67935 18.2791 6.78964 17.4002 6.05658 16.3968C4.59505 14.4126 3.04818 10.9668 3.9763 5.82473C4.00548 5.67187 4.0754 5.52971 4.17867 5.41329C4.28195 5.29687 4.41475 5.21051 4.56305 5.16331C4.71182 5.1146 4.87112 5.10774 5.02353 5.14349C5.17593 5.17924 5.31557 5.25622 5.42716 5.366C5.45917 5.40868 9.01165 8.90781 13.3536 10.0386V9.38788C13.3578 8.71121 13.4952 8.042 13.758 7.41845C14.0208 6.7949 14.4039 6.22922 14.8854 5.75372C15.3668 5.27822 15.9372 4.9022 16.564 4.64714C17.1907 4.39208 17.8616 4.26297 18.5383 4.26719C19.4264 4.27986 20.2961 4.52235 21.0626 4.97105C21.8291 5.41975 22.4663 6.05935 22.9122 6.82753H26.1553C26.3238 6.82701 26.4887 6.87637 26.6291 6.96939C26.7696 7.06242 26.8794 7.19494 26.9447 7.35027C27.0062 7.50791 27.0218 7.67974 26.9897 7.84588C26.9576 8.01201 26.8792 8.16567 26.7634 8.28906Z" fill="white"/>
</g>
<defs>
<clipPath id="clip0_210_1851">
<rect width="27.3103" height="27.3103" fill="white" transform="translate(0.550781)"/>
</clipPath>
</defs>
</svg>
