<svg width="28" height="28" viewBox="0 0 28 28" fill="none" xmlns="http://www.w3.org/2000/svg">
<path d="M17.7264 14.069C17.7264 14.7442 17.5262 15.4042 17.1511 15.9656C16.776 16.527 16.2428 16.9645 15.619 17.2229C14.9952 17.4813 14.3088 17.5489 13.6466 17.4172C12.9844 17.2855 12.3761 16.9603 11.8987 16.4829C11.4213 16.0055 11.0962 15.3972 10.9644 14.735C10.8327 14.0728 10.9003 13.3864 11.1587 12.7626C11.4171 12.1388 11.8546 11.6056 12.416 11.2305C12.9774 10.8554 13.6375 10.6552 14.3126 10.6552C15.2172 10.658 16.0838 11.0186 16.7234 11.6582C17.363 12.2978 17.7236 13.1645 17.7264 14.069ZM24.9807 9.37502V18.7629C24.9807 20.3474 24.3513 21.8669 23.231 22.9873C22.1106 24.1077 20.591 24.7371 19.0066 24.7371H9.61867C8.03423 24.7371 6.51468 24.1077 5.39432 22.9873C4.27395 21.8669 3.64453 20.3474 3.64453 18.7629V9.37502C3.64453 7.79058 4.27395 6.27103 5.39432 5.15066C6.51468 4.0303 8.03423 3.40088 9.61867 3.40088H19.0066C20.591 3.40088 22.1106 4.0303 23.231 5.15066C24.3513 6.27103 24.9807 7.79058 24.9807 9.37502ZM19.4333 14.069C19.4333 13.0562 19.133 12.0662 18.5703 11.2241C18.0077 10.382 17.2079 9.72566 16.2722 9.33808C15.3366 8.95051 14.307 8.8491 13.3136 9.04669C12.3203 9.24427 11.4079 9.73197 10.6918 10.4481C9.97562 11.1642 9.48792 12.0767 9.29034 13.07C9.09275 14.0633 9.19416 15.0929 9.58173 16.0286C9.96931 16.9643 10.6256 17.764 11.4677 18.3267C12.3098 18.8893 13.2999 19.1897 14.3126 19.1897C15.6707 19.1897 16.9732 18.6502 17.9335 17.6899C18.8938 16.7295 19.4333 15.4271 19.4333 14.069ZM21.1402 8.52157C21.1402 8.26837 21.0651 8.02087 20.9245 7.81034C20.7838 7.59982 20.5839 7.43574 20.3499 7.33884C20.116 7.24195 19.8586 7.2166 19.6103 7.26599C19.362 7.31539 19.1339 7.43731 18.9548 7.61635C18.7758 7.79538 18.6539 8.02349 18.6045 8.27182C18.5551 8.52015 18.5804 8.77755 18.6773 9.01147C18.7742 9.24539 18.9383 9.44533 19.1488 9.58599C19.3593 9.72666 19.6069 9.80174 19.86 9.80174C20.1996 9.80174 20.5252 9.66687 20.7653 9.42679C21.0053 9.18671 21.1402 8.86109 21.1402 8.52157Z" fill="white"/>
</svg>
