<svg width="28" height="28" viewBox="0 0 28 28" fill="none" xmlns="http://www.w3.org/2000/svg">
<path d="M11.5878 17.4823L17.4937 14.0685L11.5878 10.6548V17.4823ZM24.7423 8.57234C24.8902 9.10717 24.9927 9.82406 25.0609 10.7344C25.1406 11.6448 25.1747 12.4299 25.1747 13.1127L25.243 14.0685C25.243 16.5606 25.0609 18.3927 24.7423 19.5648C24.4578 20.5889 23.7978 21.2489 22.7737 21.5334C22.2389 21.6813 21.2602 21.7837 19.7582 21.852C18.2789 21.9316 16.9247 21.9658 15.673 21.9658L13.8637 22.0341C9.09575 22.0341 6.12575 21.852 4.95369 21.5334C3.92955 21.2489 3.26955 20.5889 2.98506 19.5648C2.83713 19.0299 2.73472 18.313 2.66644 17.4027C2.58679 16.4923 2.55265 15.7072 2.55265 15.0244L2.48438 14.0685C2.48438 11.5765 2.66644 9.74441 2.98506 8.57234C3.26955 7.5482 3.92955 6.8882 4.95369 6.60372C5.48851 6.45579 6.46713 6.35337 7.9692 6.2851C9.44851 6.20544 10.8027 6.1713 12.0544 6.1713L13.8637 6.10303C18.6316 6.10303 21.6016 6.2851 22.7737 6.60372C23.7978 6.8882 24.4578 7.5482 24.7423 8.57234Z" fill="white"/>
</svg>
